<svg width="2500" height="2014" viewBox="0 0 2500 2014" fill="none" xmlns="http://www.w3.org/2000/svg">
<rect width="2500" height="2003" transform="translate(0 10.957)" fill="#F1F4F3"/>
<path fill-rule="evenodd" clip-rule="evenodd" d="M741.833 950.287L792.436 1040.88L851.281 1076.56L1013.44 1078.5L1015.08 1134.23L1113.29 1157.24L1114.78 1272.21L962.146 1221.16L921.719 1329.66L1059.69 1374.06L1028.49 1482.71L1022.6 1480.1L1000.36 1545.63L976.177 1612.46L1159.26 1690.97L1287.42 1737.03L1518.9 1807.75L1559.12 1606.56L1605.21 1609.22L1614.37 1589.76L1712.44 1610.52L1777.83 1464.54L1788.29 1401.6L1872.65 1421.72L1906 1219.94L2037.43 1234.86L2043.31 1171.94L1965.5 1060.34L1775.48 1030.86L1778.54 1016.38L1816.04 877.131L1820.35 861.162L1658.17 647.059L1520.2 667.174L1461.35 520.24L1385.23 558.575L1361.39 507.063L1260.29 557.034L1247.25 570.668L1234.31 569.79L1204.35 584.146L1164.88 603.066L808.147 774.038L798.313 778.433L858.89 898.091L741.833 950.287Z" stroke="#FFFF32" stroke-width="0.4"/>
<path fill-rule="evenodd" clip-rule="evenodd" d="M1458.64 1447.5L1460.97 1550.9L1462.91 1560.92L1470.69 1574.04L1480.79 1584.45L1490.51 1592.17L1502.57 1597.95L1514.24 1602.2L1527.46 1604.52L1539.89 1604.13L1548.44 1600.28L1557 1592.55L1571.78 1577.51L1593.55 1562.08L1609.88 1542.02L1614.93 1529.68L1618.04 1506.92L1617.26 1492.64L1613.38 1475.66L1607.55 1460.23L1597.83 1445.58L1588.1 1434.39L1577.22 1426.29L1571.78 1421.66L1563.22 1409.32L1547.67 1393.11L1537.18 1388.09L1528.23 1386.94V1390.41L1522.4 1391.57L1513.07 1393.11L1499.85 1397.36L1487.8 1404.29L1477.29 1413.17L1467.57 1423.2L1460.97 1436.32L1458.64 1447.5Z" fill="#D9F3D4" stroke="#88B38B" stroke-width="0.4"/>
<path fill-rule="evenodd" clip-rule="evenodd" d="M1773.19 1237.49L1783.7 1325.06L1787.58 1345.89L1780.2 1396.81L1788.29 1401.6L1872.65 1421.72L1906 1219.94L1901.89 1217.04L1777.87 1231.69L1773.19 1237.49Z" fill="#D9F3D4" stroke="#0E9B19" stroke-width="0.4"/>
<path fill-rule="evenodd" clip-rule="evenodd" d="M1726.76 915.784L1743.98 1050.68L1771.33 1050.49L1775.48 1030.86L1778.54 1016.38L1816.04 877.132L1800.25 874.27L1786.38 916.974L1762.73 922.235L1741.85 899.946L1726.76 915.784Z" fill="#D9F3D4"/>
<path fill-rule="evenodd" clip-rule="evenodd" d="M1261.03 919.77L1262.54 1032.41L1273.1 1032.38L1273.72 1065.28L1283.21 1074.77L1301.57 1074.54L1300.74 1007.88L1366.34 1007.07L1261.03 919.77Z" fill="#D9F3D4"/>
<path fill-rule="evenodd" clip-rule="evenodd" d="M1307.03 1367.67L1309.28 1423.14L1389.21 1422.76L1418.41 1401.08L1418.65 1367.48L1307.03 1367.67Z" fill="#D9F3D4" stroke="white" stroke-width="0.666667"/>
<path fill-rule="evenodd" clip-rule="evenodd" d="M1166.72 1008.79L1215.65 1008.25L1216.44 1077.27L1235.17 1077.07L1245 1066.43L1244.56 1032.54L1255.47 1032.4L1254.01 919.441L1231.34 951.873L1166.72 1008.79Z" fill="#D9F3D4"/>
<path fill-rule="evenodd" clip-rule="evenodd" d="M1164.88 603.069L1179.82 630.468L1220.09 610.209L1213 598.914L1204.35 584.148L1164.88 603.069Z" fill="#EEEEEE" stroke="#A07070" stroke-width="0.4"/>
<path fill-rule="evenodd" clip-rule="evenodd" d="M1458.42 1157.07L1459.22 1174.82L1533.83 1173.2L1532.53 1154.98L1458.42 1157.07Z" fill="#EEEEEE" stroke="#A07070" stroke-width="0.4"/>
<path fill-rule="evenodd" clip-rule="evenodd" d="M1450.69 1360L1450.71 1365.26L1452.51 1365.24L1452.6 1381.93L1462.79 1381.88L1462.71 1368.79L1496.47 1368.59L1496.35 1347.23L1462.25 1347.42L1462.17 1334.27L1452.06 1334.32L1452.2 1359.98L1450.69 1360Z" fill="#D9F3D4" stroke="#88B38B" stroke-width="0.4"/>
<path fill-rule="evenodd" clip-rule="evenodd" d="M1384.09 517.251L1393.99 538.882L1436.4 518.914L1426.13 497.102L1384.09 517.251Z" fill="#E2CBDE" stroke="#BBA4B7" stroke-width="0.933333"/>
<path fill-rule="evenodd" clip-rule="evenodd" d="M1429.06 1492.51L1429.14 1497.71L1435.05 1497.63L1435.42 1522.38L1454.49 1522.1L1453.77 1473.32L1434.7 1473.6L1434.98 1492.43L1429.06 1492.51Z" fill="#D9F3D4" stroke="#88B38B" stroke-width="0.4"/>
<path fill-rule="evenodd" clip-rule="evenodd" d="M1201.72 1406.49L1221.75 1406.56L1221.86 1369.7L1201.83 1369.64L1201.72 1406.49Z" fill="#D9F3D4" stroke="white" stroke-width="0.666667"/>
<path fill-rule="evenodd" clip-rule="evenodd" d="M1180.44 1406.33L1200.47 1406.38L1200.58 1369.53L1180.55 1369.47L1180.44 1406.33Z" fill="#D9F3D4" stroke="white" stroke-width="0.666667"/>
<path fill-rule="evenodd" clip-rule="evenodd" d="M1159.3 1406.17L1179.34 1406.23L1179.45 1369.38L1159.42 1369.32L1159.3 1406.17Z" fill="#D9F3D4" stroke="white" stroke-width="0.666667"/>
<path fill-rule="evenodd" clip-rule="evenodd" d="M1382.96 1528.17H1399.93L1400.37 1494.08L1382.96 1493.64V1528.17Z" fill="#D9F3D4" stroke="white" stroke-width="0.666667"/>
<path fill-rule="evenodd" clip-rule="evenodd" d="M1130.41 1457.12L1142.79 1464.06L1148.51 1454.02L1145.24 1452.19L1147.1 1448.92L1145.48 1448.01L1152.05 1436.45L1144.57 1432.25L1130.41 1457.12Z" stroke="#FFFF32" stroke-width="0.4"/>
<path fill-rule="evenodd" clip-rule="evenodd" d="M1323.65 1439.57L1324.98 1452.99L1333.76 1452.14L1332.44 1438.73L1323.65 1439.57Z" fill="#E2CBDE" stroke="#BBA4B7" stroke-width="0.933333"/>
<path fill-rule="evenodd" clip-rule="evenodd" d="M1247.64 676.847L1248.12 678.308L1249.04 679.545L1250.34 680.415L1251.83 680.837L1253.38 680.753L1254.83 680.187L1256.01 679.186L1256.84 677.814L1257.15 676.26L1256.93 674.681L1256.19 673.258L1255.04 672.164L1253.57 671.514L1251.96 671.379L1250.41 671.78L1249.11 672.62L1248.15 673.836L1247.65 675.293L1247.64 676.847Z" fill="#D9F3D4"/>
<path fill-rule="evenodd" clip-rule="evenodd" d="M1251.39 1061.19L1251.43 1064.93L1266.75 1065.01L1266.6 1061.1L1251.39 1061.19Z" fill="#D9F3D4"/>
<path fill-rule="evenodd" clip-rule="evenodd" d="M1140.13 1140.55L1141.21 1244.82L1162.53 1244.61L1162.48 1239.14L1229.45 1238.45L1229.32 1225.71L1308.05 1224.9L1308.16 1235.79L1378.7 1235.07L1378.74 1238.15L1393.18 1238L1392.13 1136L1310.46 1136.83L1310.61 1150.36L1378.73 1149.67L1378.98 1174.22L1312.33 1174.9L1312.47 1188.17L1367.51 1187.61L1367.56 1192.37L1379.17 1192.25L1379.48 1222.29L1314.1 1222.95L1314.06 1219.4L1307.18 1219.47L1307.1 1212.27L1270.6 1212.64L1270.56 1209.93L1264.28 1209.99L1264.31 1212.7L1228.71 1213.07L1228.79 1220.81L1220.19 1220.89L1220.22 1224.39L1156.22 1225.04L1155.92 1196.37L1166.28 1196.27L1166.24 1191.79L1220.72 1191.24L1220.56 1176.18L1154.43 1176.85L1154.2 1154.74L1158.57 1154.7L1158.63 1159.54L1168.16 1159.45L1168.1 1152.91L1220.32 1152.38L1220.18 1140.05L1158.34 1140.36L1140.13 1140.55Z" fill="#E9EAEA"/>
<path fill-rule="evenodd" clip-rule="evenodd" d="M1622.12 1222.3L1625.63 1225.06L1622.29 1229.24L1630.38 1235.6L1631.7 1240.84L1625.82 1248.71L1629.73 1251.8L1626.91 1255.32L1638.09 1264.11L1640.91 1260.6L1646.78 1265.23L1656.19 1253.45L1664.57 1260.05L1666.33 1257.85L1670.08 1260.79L1678.89 1249.77L1683.48 1253.39L1684.81 1266.26L1677.02 1267.06L1673.81 1270.96L1670.24 1268.08L1661.33 1278.96L1665.09 1281.99L1662.09 1285.66L1670.48 1292.42L1661.76 1303.07L1667.84 1307.97L1664.6 1311.92L1675.22 1320.48L1678.45 1316.53L1681.89 1319.3L1690.97 1308.24L1702.96 1317.91L1706.29 1313.85L1709.47 1316.42L1718.89 1304.92L1715.83 1302.45L1720.67 1296.55L1715.29 1292.22L1717.96 1288.97L1711.49 1283.75L1715.38 1279L1712.24 1276.46L1714.76 1273.38L1703.63 1264.41L1701.43 1267.11L1698.62 1264.86L1688.92 1265.84L1687.53 1252.3L1691.05 1247.9L1702.27 1256.72L1704.77 1253.59L1708.27 1256.35L1714.4 1248.68L1725.49 1257.4L1731.09 1250.4L1734.81 1253.33L1743.83 1242.06L1740.06 1239.08L1743.21 1235.14L1735.95 1229.42L1735.1 1222.1L1734.18 1221.37L1740.09 1213.97L1737.34 1211.81L1739.86 1208.66L1729.04 1200.13L1726.51 1203.29L1719.61 1197.86L1715.14 1203.45L1712.84 1201.64L1708.09 1207.6L1702.32 1203.05L1699.82 1206.17L1695.99 1203.14L1686.83 1214.6L1680.42 1209.56L1675.24 1216.04L1664.23 1207.38L1661.43 1210.88L1658.17 1208.31L1654.06 1213.45L1648.42 1209.02L1646.11 1211.9L1639.82 1206.94L1634.44 1213.67L1631.12 1211.05L1622.12 1222.3ZM1631.64 1223.86L1635.48 1219.29L1640.07 1223.11L1636.23 1227.68L1631.64 1223.86ZM1636.08 1251.15L1639.68 1246.89L1643.71 1250.23L1640.11 1254.5L1636.08 1251.15ZM1640.99 1236.55L1649.82 1226.09L1660.6 1235.03L1651.78 1245.51L1640.99 1236.55ZM1659.29 1221.45L1662.46 1217.68L1666.24 1220.81L1663.06 1224.58L1659.29 1221.45ZM1662.27 1247.59L1665.68 1243.55L1670.48 1247.54L1667.05 1251.58L1662.27 1247.59ZM1669.94 1229.84L1676.31 1222.78L1680.17 1226.22L1675.3 1231.61L1672.24 1231.88L1669.94 1229.84ZM1671.08 1280.02L1673.81 1276.79L1678.59 1280.76L1675.86 1283.99L1671.08 1280.02ZM1671.47 1237.65L1673.31 1235.37L1676.87 1235.01L1682.12 1239.21L1678.68 1243.43L1671.47 1237.65ZM1673.66 1307.91L1677.4 1303.46L1681.25 1306.66L1677.51 1311.09L1673.66 1307.91ZM1680.59 1292.48L1688.65 1282.92L1699.53 1291.95L1691.46 1301.51L1680.59 1292.48ZM1684.17 1225.49L1686.9 1221.67L1695.05 1227.39L1693.52 1229.54L1690.03 1229.62L1684.17 1225.49ZM1685.8 1238.6L1690.02 1233.65L1694.74 1233.25L1696.54 1234.76L1690.14 1242.25L1685.8 1238.6ZM1696.54 1215.96L1699.3 1212.68L1703.99 1216.57L1701.23 1219.85L1696.54 1215.96ZM1698.33 1278.28L1702.06 1273.86L1705.74 1276.92L1702.01 1281.34L1698.33 1278.28ZM1699.94 1243.55L1702.95 1239.97L1706.96 1243.3L1703.94 1246.87L1699.94 1243.55ZM1701.34 1303.56L1704.39 1299.94L1709.32 1304.03L1706.27 1307.66L1701.34 1303.56ZM1705.54 1228.87L1713.69 1219.2L1724.69 1228.33L1716.54 1238L1705.54 1228.87ZM1722.49 1213.25L1725.74 1209.4L1730.45 1213.31L1727.21 1217.16L1722.49 1213.25ZM1726.44 1240.84L1729.72 1236.95L1734.07 1240.55L1730.78 1244.44L1726.44 1240.84Z" fill="#E9EAEA"/>
<path fill-rule="evenodd" clip-rule="evenodd" d="M1770.29 1121.73L1776.35 1188.45L1782.92 1197.62L1835.93 1161.07L1837.9 1163.36L1825.7 1171.59L1835.74 1185.43L1864.28 1182.93L1871.31 1166.94L1858.55 1161.55L1859.66 1158.82L1917.92 1183.53L1922.46 1172.86L1914.09 1105.17L1907.52 1095.99L1856 1132.3L1853.97 1130.06L1865.97 1121.53L1855.59 1107.95L1827.12 1111.14L1820.49 1127.31L1833.39 1132.37L1832.34 1135.13L1774.83 1111.05L1770.29 1121.73ZM1782.52 1126.85L1827.78 1145.79L1828.31 1151.82L1788.85 1179.63L1782.52 1126.85ZM1829.73 1124.94L1833.97 1118.02L1850.46 1117.1L1854.64 1123.05L1847.16 1129.18L1837.94 1129.19L1829.73 1124.94ZM1836.46 1170.13L1843.81 1163.85L1853.04 1163.65L1861.33 1167.73L1857.23 1174.74L1840.75 1175.99L1836.46 1170.13ZM1864.55 1140.09L1903.64 1112.54L1909.03 1167.25L1864.95 1148.79L1864.55 1140.09Z" fill="#E9EAEA"/>
<path fill-rule="evenodd" clip-rule="evenodd" d="M1584.81 874.242L1589.58 920.6L1612.75 918.248L1613.64 926.946L1688.13 919.405L1686.53 903.964L1680.22 904.605L1676.92 872.461L1683.61 871.785L1682.04 856.5L1606.48 864.151L1607.29 871.954L1584.81 874.242Z" fill="#E9EAEA"/>
<path fill-rule="evenodd" clip-rule="evenodd" d="M1596.11 979.625L1600.08 1026.8L1622.77 1024.93L1623.31 1031.37L1696.91 1025.28L1695.74 1011.37L1689.34 1011.9L1686.61 979.469L1693.67 978.878L1692.32 962.715L1615.12 969.099L1615.87 977.987L1596.11 979.625Z" fill="#E9EAEA"/>
<path fill-rule="evenodd" clip-rule="evenodd" d="M1608.37 1116.58L1619.67 1125.54L1623.38 1131.66L1628.02 1138.26L1633.83 1143.28L1638.94 1145.43L1641.61 1145.84L1644.88 1146.07L1651.13 1138.52L1655.83 1142.36L1653.55 1144.45L1656.55 1147.45L1664.77 1151.82L1674.06 1152.74L1682.99 1150.06L1690.21 1144.2L1693 1140.41L1689.96 1137.68L1693.29 1133.66L1701.57 1140.18L1705.85 1138.31L1709.7 1135.84L1713.8 1132.07L1717.31 1127.4L1719.17 1121.28L1721.16 1115.63L1730.3 1101.84L1729.07 1100.14L1727.43 1098.57L1725.6 1097.12L1723.26 1096.11L1720.35 1095.4L1717.43 1095.49L1708.08 1087.87L1708.5 1087.38L1701.62 1081.69L1690.62 1094.8L1687.62 1093.17L1684.1 1091.7L1686.53 1087.72L1683.49 1086.03L1679.92 1084.74L1668.5 1083.43L1658.47 1085.6L1652.82 1088.33L1648.6 1091.34L1651.53 1094.86L1647.73 1097.6L1645.53 1099.71L1632.39 1089.29L1618.37 1106.68L1615.64 1107.57L1612.98 1109.27L1611.09 1111.15L1610.16 1112.46L1609.5 1113.82L1608.37 1116.58ZM1657.64 1114.6L1661.59 1108.98L1664.82 1107L1669.19 1105.95L1673.36 1106.14L1677.6 1107.43L1682.49 1112.28L1677.88 1119.15L1664.1 1120.49L1657.64 1114.6ZM1667.63 1135.05L1669.03 1134.05L1670.05 1133.39L1671.1 1132.89L1672.25 1132.71L1673.05 1132.76L1674.12 1132.87L1675.71 1133.16L1677.55 1133.76L1676.39 1134.78L1675.18 1135.71L1674.4 1136.23L1673.71 1136.51L1672.78 1136.72L1671.99 1136.67L1671.13 1136.58L1670.19 1136.42L1668.75 1135.77L1667.63 1135.05Z" fill="#E9EAEA"/>
<path fill-rule="evenodd" clip-rule="evenodd" d="M1440.97 1221.66L1441.34 1230.32L1445.2 1230.17L1447.07 1274.14L1457.69 1273.7L1457.88 1278.16L1524.09 1275.4L1523.51 1261.73L1509.83 1262.3L1508.08 1220.93L1494.82 1221.47L1496.57 1262.85L1456.49 1264.53L1454.98 1229.17L1477.98 1228.22L1477.51 1216.9L1515.03 1215.33L1513.63 1182.29L1502.08 1182.77L1501.99 1180.69L1508.55 1180.43L1508.39 1176.62L1501.83 1176.88L1501.75 1175.09L1451.74 1177.19L1451.86 1180L1443.09 1180.38L1444.83 1221.51L1440.97 1221.66ZM1454.19 1186.73L1499.97 1184.82L1500.75 1203.05L1454.96 1204.96L1454.19 1186.73Z" fill="#E9EAEA"/>
<path fill-rule="evenodd" clip-rule="evenodd" d="M1437.17 1103.89L1437.37 1112.08L1444.13 1111.91L1444.42 1123.08L1441.95 1123.13L1442.19 1132.39L1457.53 1132L1457.67 1137.82L1490.38 1137.01L1490.34 1135.53L1503.23 1134.8L1501.46 1077.41L1457.66 1079.07L1457.77 1083.32L1441.58 1083.72L1441.84 1093.75L1443.68 1093.7L1443.93 1103.72L1437.17 1103.89Z" fill="#E9EAEA"/>
<path fill-rule="evenodd" clip-rule="evenodd" d="M1150.96 1291.29L1151.47 1340.13L1218.81 1339.45L1218.31 1290.6L1189.02 1290.89L1188.92 1282.14L1180.12 1282.23L1180.21 1290.99L1150.96 1291.29Z" fill="#E9EAEA"/>
<path fill-rule="evenodd" clip-rule="evenodd" d="M1725.26 869.812L1728.96 886.182L1741.85 899.947L1762.73 922.237L1786.38 916.976L1800.26 874.271L1796.97 853.83L1763.96 817.902L1740.31 823.168L1725.26 869.812ZM1739.38 870.534L1753.18 827.694L1785.21 860.324L1787.35 869.766L1773.26 912.606L1741.51 879.979L1739.38 870.534Z" fill="#E9EAEA"/>
<path fill-rule="evenodd" clip-rule="evenodd" d="M1300.21 876.495L1300.35 883.842L1302.13 883.809L1302.36 895.948L1328.57 895.441L1328.67 901.053L1332.88 900.968L1333.06 909.725L1333.38 926.214L1343.5 926.019L1343.42 921.987L1345.61 921.936L1345.69 925.948L1357.08 925.732L1356.73 907.977L1356.56 899.174L1361.65 899.077L1361.56 894.766L1354.37 894.901L1354.28 889.851L1381 889.336L1381.12 895.331L1390.38 895.154L1389.92 871.665L1386.63 871.741L1386.66 873.954L1384.42 874.004L1384.19 862.6L1376.91 862.743L1377.05 869.811L1374.84 869.862L1374.83 868.823L1358.7 869.136L1358.42 854.805L1356.81 854.83L1356.73 850.591L1355.1 850.625L1354.99 844.942L1353.61 844.967L1353.52 840.293L1349.93 840.352L1349.8 833.596L1345.48 833.668L1345.56 838.064L1342.01 838.127L1341.93 833.562L1338.07 833.647L1338.19 840.656L1334.07 840.741L1334.17 845.377L1332.34 845.41L1332.44 850.507L1331.34 850.532L1331.43 854.987L1329.25 855.033L1329.47 865.741L1301.72 866.273L1301.92 876.462L1300.21 876.495ZM1310.23 876.631L1338.37 876.001L1338.66 888.926L1310.52 889.551L1310.23 876.631ZM1338.59 892.262L1350.56 891.671L1351.1 902.86L1347.89 916.409L1344.43 916.578L1339.13 903.341L1338.59 892.262ZM1339.66 858.707L1343.24 847.652L1346.47 847.543L1350.64 858.635L1350.9 866.442L1350.1 872.075L1340.97 872.391L1339.95 866.923L1339.66 858.707Z" fill="#E9EAEA"/>
<path fill-rule="evenodd" clip-rule="evenodd" d="M1630.76 1547.88L1639.52 1549.97L1634.34 1571.43L1639.95 1572.76L1638.15 1580.2L1692.87 1593.2L1694.67 1585.77L1699.43 1586.9L1711.95 1535.05L1707.19 1533.91L1709.44 1524.59L1654.71 1511.58L1652.46 1520.9L1646.87 1519.57L1641.98 1539.8L1633.22 1537.72L1630.76 1547.88ZM1649.36 1568.56L1653.14 1552.89L1656.71 1553.73L1659.05 1544.06L1655.48 1543.21L1659.25 1527.54L1697.44 1536.62L1693.66 1552.29L1695.75 1552.78L1694.18 1555.12L1693.21 1558.07L1692.91 1560.59L1693.29 1563.01L1691.19 1562.52L1687.54 1577.64L1649.36 1568.56Z" fill="#E9EAEA"/>
<path fill-rule="evenodd" clip-rule="evenodd" d="M1274.54 795.981L1274.96 829.655L1281.98 829.57L1282.49 870.003L1279.57 870.037L1279.67 878.663L1292.63 878.495L1292.55 871.629L1294.88 871.604L1294.55 845.18L1301.09 845.108L1301 837.183L1294.05 837.267L1293.95 829.895L1338.87 829.342L1338.81 824.9L1348.07 824.778L1348.13 830.368L1356.59 830.258L1356.52 824.816L1386.59 824.44L1386.42 811.131L1338.95 811.735L1338.74 795.188L1274.54 795.981ZM1289.96 803.966L1318.6 803.712L1318.65 809.94L1323.36 809.907L1323.3 803.679L1330.4 803.62L1330.58 822.633L1316.48 822.755L1316.42 816.35L1311.71 816.384L1311.77 822.793L1290.12 822.983L1289.96 803.966Z" fill="#E9EAEA"/>
<path fill-rule="evenodd" clip-rule="evenodd" d="M1306.72 1289.11L1307.1 1325.18L1373.68 1324.5L1373.3 1288.42L1368.58 1288.47L1368.51 1280.88L1356.13 1281.01L1356.21 1288.6L1306.72 1289.11Z" fill="#E9EAEA"/>
<path fill-rule="evenodd" clip-rule="evenodd" d="M1166.71 1008.79L1167.9 1065.96L1214.46 1065.01L1213.72 1008.73L1166.71 1008.79ZM1178.29 1019.86L1198.32 1019.45L1198.57 1030.91L1178.54 1031.32L1178.29 1019.86ZM1179.28 1042.73L1199.31 1042.32L1199.56 1053.78L1179.53 1054.19L1179.28 1042.73Z" fill="#E9EAEA"/>
<path fill-rule="evenodd" clip-rule="evenodd" d="M1177.79 1477.77L1180.22 1478.56L1178.37 1484.07L1231.5 1501.52L1233.5 1495.53L1234.91 1495.99L1238.28 1485.86L1236.03 1485.11L1236.69 1483.15L1238.94 1483.88L1239.86 1481.11L1243.15 1471.28L1240.95 1470.55L1241.67 1468.38L1243.88 1469.1L1247.64 1457.8L1246.35 1457.37L1247.79 1453.03L1194.56 1435.55L1192.78 1440.88L1190.36 1440.08L1187.02 1450.1L1189.59 1450.95L1188.77 1453.4L1186.2 1452.56L1182.01 1465.14L1184.35 1465.92L1183.53 1468.4L1181.18 1467.63L1177.79 1477.77ZM1188.31 1470.07L1189.26 1467.22L1191.87 1468.07L1195.88 1456.06L1193.36 1455.25L1194.18 1452.78L1196.69 1453.6L1198.7 1447.56L1203.92 1449.27L1204.77 1446.72L1208.14 1447.83L1207.28 1450.38L1212.21 1451.99L1209.71 1459.5L1212.17 1460.3L1211.2 1463.21L1208.74 1462.4L1205.93 1470.79L1208.99 1471.8L1208.22 1474.13L1205.16 1473.13L1202.64 1480.67L1198.11 1479.18L1197.37 1481.42L1194.21 1480.38L1194.95 1478.14L1189.14 1476.24L1190.91 1470.93L1188.31 1470.07ZM1212.8 1483.74L1215.23 1476.44L1213.31 1475.81L1214 1473.72L1215.93 1474.35L1218.78 1465.8L1216.59 1465.07L1217.45 1462.47L1219.65 1463.19L1222.23 1455.46L1227.23 1457.11L1228.07 1454.59L1231.23 1455.63L1230.4 1458.15L1235.22 1459.74L1233.3 1465.48L1236.8 1466.63L1235.98 1469.07L1232.49 1467.93L1228.38 1480.28L1232.21 1481.54L1231.35 1484.12L1227.51 1482.86L1225.79 1488.02L1220.44 1486.26L1219.62 1488.73L1217.42 1488L1218.24 1485.53L1212.8 1483.74Z" fill="#E9EAEA"/>
<path fill-rule="evenodd" clip-rule="evenodd" d="M1217.72 1110.91L1218.38 1136.47L1227.17 1136.25L1226.71 1118.64L1257.3 1117.89L1257.45 1123.53L1277.33 1123.03L1277.19 1117.38L1306.55 1116.66L1307.03 1135.48L1316.02 1135.25L1315.61 1118.94L1317.53 1118.89L1317.31 1109.95L1313.87 1110.03L1313.73 1104.73L1309.76 1104.83L1309.67 1101.17L1277.65 1101.98L1277.53 1097.35L1278.9 1096.89L1277.04 1092.03L1272.99 1093.21L1270.87 1093.74L1268.59 1094L1266.55 1093.76L1264.74 1093.32L1260.66 1092.53L1259.41 1097.58L1261.45 1098.7L1261.52 1101.73L1225.84 1102.63L1225.93 1106.05L1221.66 1106.16L1221.78 1110.81L1217.72 1110.91Z" fill="#E9EAEA"/>
<path fill-rule="evenodd" clip-rule="evenodd" d="M1378.73 758.085L1378.87 767.67L1410.88 767.214L1410.95 771.284L1417.71 771.174L1417.65 766.973L1451.78 766.479L1451.64 756.89L1416.74 757.397L1416.7 753.567L1427.65 753.398L1427.67 754.602L1435.45 754.483L1435.33 746.689L1416.49 746.955L1416.43 743.21L1446.09 742.775L1445.9 729.504L1383.3 730.395L1383.5 743.75L1412.13 743.332L1412.17 746.752L1401.97 746.896L1402.08 754.568L1406.21 754.517L1406.18 753.533L1412.38 753.436L1412.44 757.591L1378.73 758.085Z" fill="#E9EAEA"/>
<path fill-rule="evenodd" clip-rule="evenodd" d="M1281.24 1639.7L1291.21 1642.85L1288.15 1652.41L1296.63 1655.1L1298.74 1648.55L1308.76 1651.73L1310.29 1647.01L1314.49 1648.34L1313.54 1651.29L1331.24 1656.9L1332.16 1654.09L1335.31 1655.09L1333.83 1659.67L1344.23 1662.97L1341.67 1670.94L1349.84 1673.53L1353.62 1661.81L1363.21 1664.84L1366.81 1653.66L1357.37 1650.67L1361.25 1638.6L1353.11 1636.01L1350.49 1644.15L1340 1640.82L1338.69 1644.88L1330.51 1642.29L1331.94 1637.85L1323.14 1635.05L1321.74 1639.39L1313.52 1636.79L1314.49 1633.78L1304.24 1630.55L1306.84 1622.49L1298.37 1619.8L1294.69 1631.25L1284.96 1628.15L1281.24 1639.7Z" fill="#E9EAEA"/>
<path fill-rule="evenodd" clip-rule="evenodd" d="M1068.36 1549.69L1078.24 1552.64L1075.23 1562.35L1083.74 1564.95L1085.75 1558.44L1095.83 1561.6L1097.33 1556.87L1101.55 1558.24L1100.6 1561.11L1118.27 1566.84L1119.21 1563.96L1122.37 1564.98L1120.87 1569.52L1131.29 1572.9L1128.7 1580.79L1136.84 1583.42L1140.71 1571.67L1150.22 1574.74L1153.88 1563.59L1144.39 1560.5L1148.33 1548.52L1140.19 1545.89L1137.5 1554.06L1127.07 1550.68L1125.72 1554.79L1117.55 1552.14L1119 1547.77L1110.21 1544.91L1108.77 1549.29L1100.58 1546.64L1101.54 1543.64L1091.34 1540.45L1093.85 1532.31L1085.35 1529.71L1081.83 1541.06L1071.88 1538.09L1068.36 1549.69Z" fill="#E9EAEA"/>
<path fill-rule="evenodd" clip-rule="evenodd" d="M1479.55 1308.95L1479.97 1325.6L1565.49 1323.54L1565.09 1306.89L1554.41 1307.15L1554.31 1302.71L1546.99 1302.88L1547.1 1307.33L1534.1 1307.64L1532.15 1305L1528.77 1302.97L1524.86 1302.38L1521.03 1303.3L1517.85 1305.63L1516.36 1308.06L1498.28 1308.51L1498.16 1303.57L1490.28 1303.76L1490.4 1308.69L1479.55 1308.95Z" fill="#E9EAEA"/>
<path fill-rule="evenodd" clip-rule="evenodd" d="M1504.54 1079.06L1505.35 1098.4L1534.2 1097.2L1535.77 1134.35L1552.69 1133.65L1551.17 1097.7L1552.63 1097.64L1551.77 1077.11L1504.54 1079.06Z" fill="#E9EAEA"/>
<path fill-rule="evenodd" clip-rule="evenodd" d="M1028.48 1072.85L1029.72 1100.43L1044.71 1099.77L1046.59 1101.37L1048.1 1099.61L1052.91 1099.39L1054.47 1100.9L1056.09 1099.26L1058.86 1099.15L1062.61 1101.92L1064.9 1098.87L1067.07 1098.77L1075.57 1104.62L1084.93 1091.23L1081.94 1089.17L1081.72 1081.85L1084.46 1079.98L1074.72 1065.84L1066.92 1071.14L1028.48 1072.85Z" fill="#E9EAEA"/>
<path fill-rule="evenodd" clip-rule="evenodd" d="M1523.16 1212.4L1525.23 1235.25L1527.95 1235.01L1528.4 1240.06L1525.69 1240.3L1526.02 1244.09L1528.55 1243.86L1528.97 1248.5L1526.45 1248.71L1528.47 1271.06L1553.27 1268.85L1551.12 1245.1L1556.29 1244.64L1555.18 1232.43L1550.01 1232.89L1547.97 1210.2L1523.16 1212.4Z" fill="#E9EAEA"/>
<path fill-rule="evenodd" clip-rule="evenodd" d="M1467.99 728.273L1469.37 767.09L1505.93 765.705L1504.31 728.273H1467.99Z" fill="#E9EAEA"/>
<path fill-rule="evenodd" clip-rule="evenodd" d="M1289.4 715.556L1289.83 724.034L1298.99 723.578L1299.18 727.429L1300.4 727.357L1300.52 729.958L1304.92 729.73L1305.07 732.466L1312.85 732.069L1312.97 734.307L1315.52 734.176L1315.7 737.487L1324.23 737.052L1324.07 734.007L1328.99 733.767L1328.89 731.706L1330.9 731.597L1330.74 728.48L1332.39 728.396L1332.24 725.432L1354.04 724.326L1356.21 724.203L1361.46 723.937L1360.79 711.245L1354.75 711.545L1354.64 709.21L1331.78 710.375L1331.68 708.534L1330.21 708.618L1330.07 705.971L1327.6 706.089L1327.55 705.067L1325.64 705.173L1325.5 702.403L1322.7 702.538L1322.66 701.609L1316.76 701.909L1316.8 702.669L1314.63 702.779L1314.76 705.439L1312.44 705.561L1312.49 706.461L1309.52 706.621L1309.58 707.605L1308.03 707.69L1307.97 706.596L1304.61 706.765L1304.72 709.138L1302.47 709.243L1299.86 709.391L1299.98 711.882V711.967L1298.55 712.051L1298.7 715.074L1289.4 715.556ZM1316.04 719.495L1316.24 717.954L1317.02 716.59L1318.27 715.628L1319.78 715.218L1321.35 715.425L1322.71 716.193L1323.68 717.435L1324.1 718.942L1323.9 720.492L1323.12 721.856L1321.87 722.806L1320.35 723.215L1318.79 723.021L1317.41 722.24L1316.46 721.011L1316.04 719.495Z" fill="#E9EAEA"/>
<path fill-rule="evenodd" clip-rule="evenodd" d="M1139.99 1104.75L1140.66 1128.1L1158.21 1127.91L1158.15 1118.21L1193.31 1117.21L1193.48 1123.04L1197.14 1122.93L1197.18 1124.27L1202.34 1124.12L1202.31 1122.79L1213.81 1122.46L1213.24 1102.65L1139.99 1104.75Z" fill="#E9EAEA"/>
<path fill-rule="evenodd" clip-rule="evenodd" d="M1311.77 1013.61L1311.94 1030.5L1325.74 1030.35L1325.78 1033.9L1312.98 1034.01L1313.17 1051.69L1318.37 1051.65L1318.38 1052.98L1326.37 1052.9L1326.36 1051.59L1329.62 1051.55L1329.66 1055.87L1349.24 1055.67L1349.18 1050L1354.96 1049.94L1354.85 1040.66L1349.12 1040.72L1349.04 1033.21L1329.8 1033.4L1329.78 1030.64L1340.61 1030.53L1340.44 1013.32L1311.77 1013.61Z" fill="#E9EAEA"/>
<path fill-rule="evenodd" clip-rule="evenodd" d="M1450.69 1360L1450.71 1365.26L1452.5 1365.24L1452.59 1381.93L1462.79 1381.88L1462.71 1368.79L1496.47 1368.59L1496.35 1347.23L1462.24 1347.42L1462.16 1334.27L1452.06 1334.32L1452.2 1359.98L1450.69 1360Z" fill="#E9EAEA"/>
<path fill-rule="evenodd" clip-rule="evenodd" d="M1485.9 1016.77L1486.07 1020.13L1486.86 1024.19L1489.24 1027.98L1491.2 1026.92L1495.27 1030.68L1499.53 1034.28L1502.35 1035.75L1505.54 1036.69L1510.13 1037.01L1510.16 1038.82L1512.64 1038.69L1516.25 1037.24L1519.67 1035.2L1522.73 1032.29L1524.1 1030.51L1525.31 1028.73L1524.42 1028.27L1525.7 1023.86L1524.42 1023.23L1524.45 1018.62L1526.47 1018.69L1526.39 1012.1L1521.03 1012.08L1525.65 1007.1L1521.84 1003.31L1518.69 1006.1L1515.65 1003.04L1511.24 1003.36L1510.82 998.559L1496.96 999.956L1497.21 1003.62L1491.98 1008.88L1489.59 1007.63L1487.01 1012.12L1485.9 1016.77Z" fill="#E9EAEA"/>
<path fill-rule="evenodd" clip-rule="evenodd" d="M1008.95 1533.82L1026.77 1538.8L1028.31 1533.37L1035.58 1535.39L1034.85 1537.92L1038 1538.8L1034.66 1550.53L1043.16 1552.91L1045.92 1543.23L1055.42 1545.88L1057.11 1539.97L1062.27 1541.42L1063.65 1536.55L1058.48 1535.1L1060.43 1528.26L1050.93 1525.6L1054.13 1514.33L1045.63 1511.95L1042.31 1523.64L1039.17 1522.76L1038.35 1525.61L1031.13 1523.59L1032.8 1517.68L1018.06 1513.55L1015.16 1523.73L1012.07 1522.87L1008.95 1533.82Z" fill="#E9EAEA"/>
<path fill-rule="evenodd" clip-rule="evenodd" d="M1328.65 1097.84L1329.03 1111.63L1378.24 1110.33L1378.6 1123.88L1391.22 1123.55L1390.49 1096.21L1328.65 1097.84Z" fill="#E9EAEA"/>
<path fill-rule="evenodd" clip-rule="evenodd" d="M1436.28 1032.54L1436.51 1039.23L1443.33 1039.01L1445.01 1040.98L1437.52 1048.41L1444.98 1055.63L1452.28 1048.21L1463.57 1048.26L1470.45 1054.91L1477.4 1047.83L1466.79 1037.57L1471.11 1037.43L1471 1033.88L1466.62 1034.03L1476.84 1021.93L1469.92 1016.19L1463.9 1023.31L1452.92 1023.26L1444.94 1015.93L1437.32 1024.08L1442.18 1028.55L1438.64 1032.47L1436.28 1032.54Z" fill="#E9EAEA"/>
<path fill-rule="evenodd" clip-rule="evenodd" d="M1411.97 806.735L1412.13 815.539L1421.31 815.382L1421.42 821.142L1428.01 821.019L1428.35 839.517L1443.58 839.243L1443.23 820.082L1448.13 819.985L1447.71 797.788L1439.26 797.931L1439.33 801.28L1437.63 801.305L1437.59 798.666L1433.08 798.738L1433.11 800.439L1429.66 800.511L1429.58 796.5L1420.73 796.669L1420.92 806.579L1411.97 806.735Z" fill="#E9EAEA"/>
<path fill-rule="evenodd" clip-rule="evenodd" d="M1337.04 956.648L1337.27 962.682L1340.18 962.572L1340.25 964.329L1345.07 964.151L1345.01 962.657L1361.68 962.019L1361.79 965.258L1367.28 965.042L1367.15 961.812L1385.65 961.103L1385.69 962.534L1389.73 962.378L1389.68 960.959L1392.06 960.862L1391.83 954.782H1391.74L1391.26 942.41L1387.91 942.533L1387.85 940.857L1385.25 940.954L1385.08 936.668L1343.47 938.256L1343.63 942.423L1341.64 942.507L1341.69 944.108L1337.67 944.256L1338.15 956.61L1337.04 956.648ZM1344.31 944.674L1363.45 943.939L1363.58 947.384L1358.82 947.566L1359 952.227L1363.76 952.046L1363.91 955.842L1344.78 956.576L1344.31 944.674ZM1366.41 943.833L1384.62 943.132L1385.07 955.044L1366.87 955.732L1366.41 943.833Z" fill="#E9EAEA"/>
<path fill-rule="evenodd" clip-rule="evenodd" d="M1446.82 1687.39L1449.35 1688.15L1447.44 1694.34L1453.76 1696.24L1451.74 1702.82L1459.58 1705.19L1461.15 1700.08L1472.22 1703.43L1474.73 1695.29L1480.53 1697.05L1478.61 1703.31L1485.6 1705.42L1490.83 1688.38L1478.01 1684.5L1477.08 1687.49L1470.04 1685.36L1470.92 1682.5L1467.65 1681.51L1469.87 1674.31L1461.13 1671.66L1458.91 1678.86L1452.77 1677.01L1450.79 1683.43L1448.26 1682.67L1446.82 1687.39Z" fill="#E9EAEA"/>
<path fill-rule="evenodd" clip-rule="evenodd" d="M1156.47 1670.34L1174.63 1679.44L1173.72 1681.22L1177.94 1683.34L1176.43 1686.28L1173.35 1684.73L1170.92 1689.53L1181.63 1694.91L1186.48 1685.38L1205.29 1694.83L1204.64 1696.1L1210.68 1699.12L1216.3 1688.09L1187.76 1673.77L1188.5 1672.33L1183.81 1669.98L1183.07 1671.42L1161.45 1660.59L1156.47 1670.34Z" fill="#E9EAEA"/>
<path fill-rule="evenodd" clip-rule="evenodd" d="M1055.82 1429.22L1073.9 1434.95L1073.36 1436.63L1078.83 1438.36L1078.29 1440.06L1072.82 1438.33L1070.67 1444.98L1085.6 1449.72L1087.76 1443.02L1082.6 1441.39L1083.04 1440.05L1088.18 1441.69L1088.83 1439.7L1106.81 1445.39L1110.55 1433.77L1059.56 1417.6L1055.82 1429.22Z" fill="#E9EAEA"/>
<path fill-rule="evenodd" clip-rule="evenodd" d="M1227.05 1681.77L1235 1686.97L1238.02 1682.41L1239.9 1683.61L1242.22 1680.05L1253.11 1683.66L1252.96 1687.69L1254.52 1687.74L1254.48 1693.34L1263.89 1693.41L1263.94 1688.08L1266.08 1688.15L1266.31 1681.59L1270.19 1675.66L1268.91 1674.84L1272.11 1670.2L1263.96 1664.68L1260.63 1669.51L1259.25 1668.62L1256.86 1672.28L1245.62 1668.54L1245.74 1664.22L1243.35 1664.16L1243.54 1658.63L1234.4 1658.3L1234.19 1663.93L1232.48 1663.88L1232.31 1670.62L1228.57 1676.39L1230.01 1677.3L1227.05 1681.77Z" fill="#E9EAEA"/>
<path fill-rule="evenodd" clip-rule="evenodd" d="M1369.57 1618.07L1377.53 1623.27L1380.54 1618.71L1382.42 1619.91L1384.74 1616.35L1395.63 1619.96L1395.48 1624L1397.05 1624.04L1397 1629.64L1406.41 1629.71L1406.45 1624.38L1408.61 1624.45L1408.84 1617.89L1412.71 1611.96L1411.44 1611.15L1414.63 1606.5L1406.49 1600.98L1403.16 1605.81L1401.77 1604.92L1399.38 1608.58L1388.15 1604.85L1388.25 1600.52L1385.88 1600.46L1386.07 1594.94L1376.93 1594.6L1376.72 1600.23L1375 1600.19L1374.84 1606.92L1371.1 1612.69L1372.54 1613.6L1369.57 1618.07Z" fill="#E9EAEA"/>
<path fill-rule="evenodd" clip-rule="evenodd" d="M1332.06 1715.61L1340.02 1720.8L1343.04 1716.25L1344.92 1717.44L1347.24 1713.88L1358.12 1717.49L1357.98 1721.52L1359.54 1721.58L1359.51 1727.17L1368.92 1727.25L1368.95 1721.91L1371.1 1721.98L1371.33 1715.42L1375.21 1709.49L1373.94 1708.68L1377.13 1704.04L1368.99 1698.51L1365.65 1703.34L1364.27 1702.46L1361.88 1706.12L1350.65 1702.39L1350.75 1698.05L1348.37 1697.99L1348.57 1692.47L1339.43 1692.14L1339.22 1697.76L1337.5 1697.73L1337.33 1704.45L1333.59 1710.22L1335.03 1711.13L1332.06 1715.61Z" fill="#E9EAEA"/>
<path fill-rule="evenodd" clip-rule="evenodd" d="M1124.52 1624.41L1132.47 1629.6L1135.5 1625.05L1137.38 1626.25L1139.69 1622.67L1150.58 1626.28L1150.43 1630.32L1152 1630.38L1151.95 1635.98L1161.36 1636.04L1161.41 1630.71L1163.55 1630.78L1163.78 1624.22L1167.66 1618.29L1166.39 1617.47L1169.58 1612.83L1161.43 1607.31L1158.1 1612.15L1156.73 1611.26L1154.33 1614.92L1143.09 1611.19L1143.21 1606.85L1140.82 1606.79L1141.02 1601.26L1131.87 1600.93L1131.66 1606.56L1129.95 1606.52L1129.78 1613.24L1126.04 1619.01L1127.48 1619.94L1124.52 1624.41Z" fill="#E9EAEA"/>
<path fill-rule="evenodd" clip-rule="evenodd" d="M1258.42 1583.07L1266.37 1588.28L1269.4 1583.72L1271.28 1584.91L1273.6 1581.35L1284.47 1584.96L1284.33 1589L1285.89 1589.04L1285.86 1594.65L1295.27 1594.72L1295.3 1589.38L1297.45 1589.45L1297.68 1582.89L1301.56 1576.96L1300.29 1576.15L1303.49 1571.51L1295.34 1565.98L1292 1570.81L1290.63 1569.93L1288.23 1573.59L1277 1569.86L1277.11 1565.53L1274.71 1565.47L1274.92 1559.94L1265.78 1559.6L1265.57 1565.23L1263.85 1565.2L1263.69 1571.92L1259.95 1577.69L1261.38 1578.6L1258.42 1583.07Z" fill="#E9EAEA"/>
<path fill-rule="evenodd" clip-rule="evenodd" d="M1155.71 1525.91L1163.66 1531.09L1166.67 1526.54L1168.56 1527.73L1170.88 1524.17L1181.76 1527.78L1181.62 1531.82L1183.17 1531.87L1183.14 1537.47L1192.55 1537.54L1192.58 1532.21L1194.73 1532.28L1194.97 1525.71L1198.84 1519.79L1197.57 1518.97L1200.77 1514.33L1192.62 1508.81L1189.29 1513.63L1187.91 1512.75L1185.52 1516.41L1174.28 1512.68L1174.39 1508.34L1172 1508.29L1172.21 1502.76L1163.06 1502.43L1162.85 1508.06L1161.13 1508.02L1160.97 1514.74L1157.23 1520.51L1158.67 1521.43L1155.71 1525.91Z" fill="#E9EAEA"/>
<path fill-rule="evenodd" clip-rule="evenodd" d="M1119.64 784.845L1126.98 801.333L1161.09 786.386L1153.76 769.91L1119.64 784.845Z" fill="#E9EAEA"/>
<path fill-rule="evenodd" clip-rule="evenodd" d="M1461.29 1650.65L1469.2 1653.15L1471.88 1644.82L1488.26 1650.02L1485.66 1658.09L1494.06 1660.75L1502.81 1633.63L1494.4 1630.96L1491.47 1640.05L1475.1 1634.86L1477.97 1625.91L1470.08 1623.41L1461.29 1650.65Z" fill="#E9EAEA"/>
<path fill-rule="evenodd" clip-rule="evenodd" d="M1053.31 1496.25L1061.2 1498.77L1063.89 1490.43L1080.26 1495.62L1077.66 1503.69L1086.07 1506.37L1094.82 1479.25L1086.42 1476.57L1083.49 1485.66L1067.1 1480.46L1069.99 1471.53L1062.08 1469.02L1053.31 1496.25Z" fill="#E9EAEA"/>
<path fill-rule="evenodd" clip-rule="evenodd" d="M1429.73 1749.09L1437.62 1751.59L1440.31 1743.26L1456.68 1748.47L1454.08 1756.53L1462.49 1759.19L1471.24 1732.07L1462.83 1729.41L1459.91 1738.49L1443.52 1733.3L1446.41 1724.35L1438.5 1721.85L1429.73 1749.09Z" fill="#E9EAEA"/>
<path fill-rule="evenodd" clip-rule="evenodd" d="M1017.71 1593.9L1025.61 1596.41L1028.29 1588.07L1044.67 1593.27L1042.07 1601.34L1050.48 1604.01L1059.22 1576.88L1050.81 1574.22L1047.89 1583.3L1031.51 1578.11L1034.38 1569.16L1026.49 1566.66L1017.71 1593.9Z" fill="#E9EAEA"/>
<path fill-rule="evenodd" clip-rule="evenodd" d="M1247.77 1180.08L1247.99 1201.16L1272.88 1200.9L1272.66 1179.82L1247.77 1180.08Z" fill="#E9EAEA"/>
<path fill-rule="evenodd" clip-rule="evenodd" d="M1044.98 1114.14L1045.13 1127.69L1081.58 1127.29L1081.43 1113.75L1044.98 1114.14Z" fill="#E9EAEA"/>
<path fill-rule="evenodd" clip-rule="evenodd" d="M1359.19 1562.91L1372.61 1566.26L1374.46 1558.94L1376.27 1559.38L1374.41 1566.7L1390.48 1570.72L1395.28 1551.77L1385.6 1549.36L1383.96 1555.85L1362.35 1550.46L1359.19 1562.91Z" fill="#E9EAEA"/>
<path fill-rule="evenodd" clip-rule="evenodd" d="M1322.82 739.39L1322.92 744.676L1325.31 744.638L1325.46 753.096L1339.67 752.855L1339.76 757.744L1352.7 757.516L1352.67 756.081L1357.91 755.996L1357.89 754.274L1359.4 754.253L1359.25 745.398L1357.33 745.436L1357.2 738.617L1351.15 738.727L1351.29 746.424L1340.07 746.614L1339.97 741.607L1332.98 741.725L1332.93 739.208L1322.82 739.39Z" fill="#E9EAEA"/>
<path fill-rule="evenodd" clip-rule="evenodd" d="M1446.48 1151.15L1446.78 1157.79L1454.71 1157.44L1454.64 1155.85L1475.8 1154.91L1475.13 1140.18L1459.5 1140.87L1459.36 1137.8L1449.41 1138.24L1449.85 1148.06L1447.7 1148.15L1447.83 1151.09L1446.48 1151.15Z" fill="#E9EAEA"/>
<path fill-rule="evenodd" clip-rule="evenodd" d="M1186.85 1572.4L1210.02 1580.31L1202.96 1600.67L1208.4 1602.52L1215.48 1582.1L1216.6 1582.47L1219.8 1573.24L1190.08 1563.1L1186.85 1572.4Z" fill="#E9EAEA"/>
<path fill-rule="evenodd" clip-rule="evenodd" d="M1094.29 928.091L1106.04 942.24L1123.93 927.618L1112.18 913.469L1094.29 928.091Z" fill="#E9EAEA"/>
<path fill-rule="evenodd" clip-rule="evenodd" d="M1450.11 1304.51L1450.38 1324.34L1470.53 1324.09L1470.26 1304.24L1450.11 1304.51Z" fill="#E9EAEA"/>
<path fill-rule="evenodd" clip-rule="evenodd" d="M956.371 837.366L962.869 850.252L968.24 847.592L966.103 843.34L969.197 841.808L971.219 845.819L978.525 842.196L976.632 838.451L978.942 837.307L981.006 841.398L987.394 838.231L980.836 825.227L976.781 827.236L976.53 826.742L971.759 829.115L972.014 829.597L964.776 833.186L964.35 832.333L959.929 834.524L960.367 835.377L956.371 837.366Z" fill="#E9EAEA"/>
<path fill-rule="evenodd" clip-rule="evenodd" d="M928.114 851.917L934.6 864.804L939.979 862.139L937.834 857.9L940.94 856.359L942.958 860.37L950.269 856.743L948.375 852.998L950.681 851.854L952.749 855.962L959.124 852.795L952.575 839.773L948.511 841.8L948.268 841.306L943.502 843.666L943.745 844.16L936.519 847.749L936.081 846.88L931.668 849.071L932.106 849.941L928.114 851.917Z" fill="#E9EAEA"/>
<path fill-rule="evenodd" clip-rule="evenodd" d="M1124.94 958.053L1137.8 975.77L1151.14 966.244L1138.28 948.527L1124.94 958.053Z" fill="#E9EAEA"/>
<path fill-rule="evenodd" clip-rule="evenodd" d="M1074.69 893.816L1086.62 909.941L1100.02 900.188L1088.09 884.062L1074.69 893.816Z" fill="#E9EAEA"/>
<path fill-rule="evenodd" clip-rule="evenodd" d="M943.244 1011.04L948.347 1023.32L971.471 1013.85L966.369 1001.57L943.244 1011.04Z" fill="#E9EAEA"/>
<path fill-rule="evenodd" clip-rule="evenodd" d="M1774.1 1043.18L1774.45 1054.99L1802.15 1054.2L1801.8 1042.38L1774.1 1043.18Z" fill="#E9EAEA"/>
<path fill-rule="evenodd" clip-rule="evenodd" d="M1170.03 962.34L1182.72 977.697L1195.22 967.529L1182.52 952.164L1170.03 962.34Z" fill="#E9EAEA"/>
<path fill-rule="evenodd" clip-rule="evenodd" d="M1130.4 1457.12L1142.78 1464.06L1148.51 1454.02L1145.24 1452.19L1147.1 1448.92L1145.47 1448.01L1152.05 1436.45L1144.57 1432.25L1130.4 1457.12Z" fill="#E9EAEA"/>
<path fill-rule="evenodd" clip-rule="evenodd" d="M1545.22 684.748L1546.75 695.776L1573.93 692.056L1572.4 681.023L1545.22 684.748Z" fill="#E9EAEA"/>
<path fill-rule="evenodd" clip-rule="evenodd" d="M1022.2 835.7L1034.28 851.682L1046.3 842.735L1034.22 826.766L1022.2 835.7Z" fill="#E9EAEA"/>
<path fill-rule="evenodd" clip-rule="evenodd" d="M1134.25 1128.17L1134.38 1140.61L1140.13 1140.55L1158.34 1140.36L1158.2 1127.91L1140.65 1128.1L1134.25 1128.17Z" fill="#E9EAEA"/>
<path fill-rule="evenodd" clip-rule="evenodd" d="M985.006 949.301L989.925 959.633L1015.22 947.781L1010.49 937.82L1001.44 942.06L1002.31 943.905L994.023 947.794L992.959 945.577L985.006 949.301Z" fill="#E9EAEA"/>
<path fill-rule="evenodd" clip-rule="evenodd" d="M957.796 964.15L963.026 975.242L986.15 964.509L981.057 953.695L973.448 957.225L974.397 959.222L965.183 963.5L964.111 961.224L957.796 964.15Z" fill="#E9EAEA"/>
<path fill-rule="evenodd" clip-rule="evenodd" d="M1504.97 629.841L1510.57 644.784L1527 638.717L1521.41 623.77L1504.97 629.841Z" fill="#E9EAEA"/>
<path fill-rule="evenodd" clip-rule="evenodd" d="M973.007 998.352L978.735 1011.09L996.331 1003.31L990.591 990.574L973.007 998.352Z" fill="#E9EAEA"/>
<path fill-rule="evenodd" clip-rule="evenodd" d="M1149.31 930.872L1160.83 946.613L1171.94 938.616L1160.43 922.875L1149.31 930.872Z" fill="#E9EAEA"/>
<path fill-rule="evenodd" clip-rule="evenodd" d="M1000.21 985.034L1005.08 995.81L1025.21 986.85L1020.35 976.07L1000.21 985.034Z" fill="#E9EAEA"/>
<path fill-rule="evenodd" clip-rule="evenodd" d="M926.657 978.085L931.679 988.814L953.165 978.917L948.165 968.234L943.003 970.607L944.101 972.942L936.032 976.662L934.921 974.277L926.657 978.085Z" fill="#E9EAEA"/>
<path fill-rule="evenodd" clip-rule="evenodd" d="M1047.21 868.569L1058.01 882.794L1069.44 874.269L1058.64 860.031L1047.21 868.569Z" fill="#E9EAEA"/>
<path fill-rule="evenodd" clip-rule="evenodd" d="M1483.17 575.04L1488.81 587.049L1505.76 579.22L1500.13 567.199L1483.17 575.04Z" fill="#E9EAEA"/>
<path fill-rule="evenodd" clip-rule="evenodd" d="M1046.82 967.531L1051.51 976.575L1072.88 965.677L1068.19 956.633L1046.82 967.531Z" fill="#E9EAEA"/>
<path fill-rule="evenodd" clip-rule="evenodd" d="M1048.61 812.696L1060.72 827.766L1070.29 820.186L1058.16 805.121L1048.61 812.696Z" fill="#E9EAEA"/>
<path fill-rule="evenodd" clip-rule="evenodd" d="M1499.97 616.434L1504.77 628.646L1521.12 622.325L1516.31 610.109L1499.97 616.434Z" fill="#E9EAEA"/>
<path fill-rule="evenodd" clip-rule="evenodd" d="M874.309 871.253L877.309 876.83L904.016 862.702L901.161 857.391L891.846 862.331L890.82 860.414L879.424 866.448L880.313 868.086L874.309 871.253Z" fill="#E9EAEA"/>
<path fill-rule="evenodd" clip-rule="evenodd" d="M1073.65 842.699L1085.41 858.069L1094.13 851.494L1082.37 836.125L1073.65 842.699Z" fill="#E9EAEA"/>
<path fill-rule="evenodd" clip-rule="evenodd" d="M1100.12 871.533L1111.89 887.359L1120.48 881.071L1108.7 865.246L1100.12 871.533Z" fill="#E9EAEA"/>
<path fill-rule="evenodd" clip-rule="evenodd" d="M1453.68 504.834L1458.86 515.867L1474.11 508.799L1468.93 497.766L1453.68 504.834Z" fill="#E9EAEA"/>
<path fill-rule="evenodd" clip-rule="evenodd" d="M1367.13 623.952L1367.53 635.875L1384.21 635.318L1383.81 623.398L1367.13 623.952Z" fill="#E9EAEA"/>
<path fill-rule="evenodd" clip-rule="evenodd" d="M1443.83 1528.13L1444.36 1549.04L1453.27 1548.82L1452.74 1527.91L1443.83 1528.13Z" fill="#E9EAEA"/>
<path fill-rule="evenodd" clip-rule="evenodd" d="M1440.71 1445.85L1440.98 1464.45L1450.79 1464.3L1450.52 1445.71L1440.71 1445.85Z" fill="#E9EAEA"/>
<path fill-rule="evenodd" clip-rule="evenodd" d="M904.948 898.188L911.621 910.065L923.226 903.643L916.553 891.77L904.948 898.188Z" fill="#E9EAEA"/>
<path fill-rule="evenodd" clip-rule="evenodd" d="M1323.79 1552.96L1335.55 1555.85L1339.11 1541.63L1327.35 1538.73L1323.79 1552.96Z" fill="#E9EAEA"/>
<path fill-rule="evenodd" clip-rule="evenodd" d="M1123.3 898.692L1133.99 911.604L1142.09 905.005L1131.4 892.105L1123.3 898.692Z" fill="#E9EAEA"/>
<path fill-rule="evenodd" clip-rule="evenodd" d="M891.397 905.258L897.414 917.178L908.866 911.494L902.861 899.57L891.397 905.258Z" fill="#E9EAEA"/>
<path fill-rule="evenodd" clip-rule="evenodd" d="M945.439 886.818L951.014 898.497L962.93 892.898L957.355 881.215L945.439 886.818Z" fill="#E9EAEA"/>
<path fill-rule="evenodd" clip-rule="evenodd" d="M959.226 880.516L964.49 892.043L976.58 886.596L971.316 875.086L959.226 880.516Z" fill="#E9EAEA"/>
<path fill-rule="evenodd" clip-rule="evenodd" d="M1461.51 519.214L1465.3 528.659L1480.3 522.731L1476.52 513.277L1461.51 519.214Z" fill="#E9EAEA"/>
<path fill-rule="evenodd" clip-rule="evenodd" d="M1451 492.829L1455.43 502.764L1469.04 496.802L1464.6 486.867L1451 492.829Z" fill="#E9EAEA"/>
<path fill-rule="evenodd" clip-rule="evenodd" d="M1260.96 1488.4L1261.6 1491.12L1263.25 1493.38L1265.64 1494.85L1268.42 1495.29L1271.16 1494.64L1273.43 1493.01L1274.91 1490.64L1275.36 1487.88L1274.71 1485.17L1273.07 1482.91L1270.68 1481.44L1267.89 1481L1265.16 1481.65L1262.88 1483.27L1261.4 1485.64L1260.96 1488.4Z" fill="#E9EAEA"/>
<path fill-rule="evenodd" clip-rule="evenodd" d="M1024.76 926.006L1029.59 934.451L1043.6 926.538L1038.76 918.094L1024.76 926.006Z" fill="#E9EAEA"/>
<path fill-rule="evenodd" clip-rule="evenodd" d="M1038.98 930.486L1043.37 938.052L1058.31 929.523L1053.93 921.961L1038.98 930.486Z" fill="#E9EAEA"/>
<path fill-rule="evenodd" clip-rule="evenodd" d="M1467.3 534.632L1472.17 544.846L1483.81 539.378L1478.93 529.164L1467.3 534.632Z" fill="#E9EAEA"/>
<path fill-rule="evenodd" clip-rule="evenodd" d="M1067.94 1582.1L1087.34 1587.2L1089.14 1580.51L1069.74 1575.39L1067.94 1582.1Z" fill="#E9EAEA"/>
<path fill-rule="evenodd" clip-rule="evenodd" d="M1478.74 561.405L1483.92 572.86L1493.15 568.739L1487.97 557.301L1478.74 561.405Z" fill="#E9EAEA"/>
<path fill-rule="evenodd" clip-rule="evenodd" d="M1516.15 653.087L1517.85 660.142L1534.61 656.169L1532.9 649.109L1516.15 653.087Z" fill="#E9EAEA"/>
<path fill-rule="evenodd" clip-rule="evenodd" d="M1648.69 703.701L1652.79 708.265L1667.2 695.514L1663.09 690.949L1648.69 703.701Z" fill="#E9EAEA"/>
<path fill-rule="evenodd" clip-rule="evenodd" d="M1037.22 1037.91L1042.47 1044.96L1053.14 1037.12L1047.9 1030.09L1037.22 1037.91Z" fill="#E9EAEA"/>
<path fill-rule="evenodd" clip-rule="evenodd" d="M969.099 1055.89L972.571 1062.06L986.738 1054.24L983.261 1048.06L969.099 1055.89Z" fill="#E9EAEA"/>
<path fill-rule="evenodd" clip-rule="evenodd" d="M957.343 1047.03L959.696 1051.76L978.425 1042.64L976.08 1037.89L957.343 1047.03Z" fill="#E9EAEA"/>
<path fill-rule="evenodd" clip-rule="evenodd" d="M1213.32 1653.93L1219.96 1655.08L1219.72 1656.5L1226.07 1657.6L1227.46 1649.6L1220.1 1648.32L1220.43 1646.44L1214.81 1645.47L1213.32 1653.93Z" fill="#E9EAEA"/>
<path fill-rule="evenodd" clip-rule="evenodd" d="M1869.41 1092.14L1882.19 1092.31L1882.3 1083.97L1875.92 1083.89L1869.53 1083.8L1869.41 1092.14Z" fill="#E9EAEA"/>
<path fill-rule="evenodd" clip-rule="evenodd" d="M1336.82 1555.47L1348.91 1559.19L1351.34 1551.39L1339.26 1547.67L1336.82 1555.47Z" fill="#E9EAEA"/>
<path fill-rule="evenodd" clip-rule="evenodd" d="M1644.03 688.022L1648.86 694.803L1658.79 687.832L1653.95 681.051L1644.03 688.022Z" fill="#E9EAEA"/>
<path fill-rule="evenodd" clip-rule="evenodd" d="M1417.78 1637.33L1430.57 1640.48L1432.37 1633.27L1419.59 1630.11L1417.78 1637.33Z" fill="#E9EAEA"/>
<path fill-rule="evenodd" clip-rule="evenodd" d="M1488.86 556.742L1493.93 568.653L1499.78 566.208L1494.71 554.297L1488.86 556.742Z" fill="#E9EAEA"/>
<path fill-rule="evenodd" clip-rule="evenodd" d="M1374.09 1046.81L1374.75 1058.48L1381.66 1058.1L1381 1046.43L1374.09 1046.81Z" fill="#E9EAEA"/>
<path fill-rule="evenodd" clip-rule="evenodd" d="M1605.83 1593.31L1614.89 1597.45L1618.26 1590.22L1609.2 1586.06L1605.83 1593.31Z" fill="#E9EAEA"/>
<path fill-rule="evenodd" clip-rule="evenodd" d="M1729.03 1141.96L1729.52 1150.18L1738.9 1149.61L1738.41 1141.41L1729.03 1141.96Z" fill="#E9EAEA"/>
<path fill-rule="evenodd" clip-rule="evenodd" d="M1601.74 1608.11L1611.96 1609.35L1612.72 1603.21L1602.51 1601.97L1601.74 1608.11Z" fill="#E9EAEA"/>
<path fill-rule="evenodd" clip-rule="evenodd" d="M1365.56 1035.35L1365.68 1044.62L1371.53 1044.54L1371.41 1035.27L1365.56 1035.35Z" fill="#E9EAEA"/>
<path fill-rule="evenodd" clip-rule="evenodd" d="M1635.52 698.219L1639.46 704.135L1645.28 700.318L1641.33 694.402L1635.52 698.219Z" fill="#E9EAEA"/>
<path fill-rule="evenodd" clip-rule="evenodd" d="M1148.53 1057.69L1152.94 1057.82L1153.08 1051.27H1148.67L1148.53 1057.69Z" fill="#E9EAEA"/>
<path fill-rule="evenodd" clip-rule="evenodd" d="M1553.64 1061.51L1553.65 1065.35L1559.8 1065.34L1559.79 1061.48L1553.64 1061.51Z" fill="#E9EAEA"/>
<path fill-rule="evenodd" clip-rule="evenodd" d="M916.528 1351.7L918.077 1354.61L921.251 1354.24L922.626 1352.24L921.077 1349.33L918.307 1349.53L916.528 1351.7Z" fill="#E9EAEA"/>
<path fill-rule="evenodd" clip-rule="evenodd" d="M1519.01 1062.48L1519.05 1065.79L1523.53 1065.74L1523.48 1062.44L1519.01 1062.48Z" fill="#E9EAEA"/>
<path fill-rule="evenodd" clip-rule="evenodd" d="M1512.92 1062.59L1512.95 1065.9L1517.42 1065.85L1517.38 1062.54L1512.92 1062.59Z" fill="#E9EAEA"/>
<path fill-rule="evenodd" clip-rule="evenodd" d="M1525.11 1062.39L1525.15 1065.69L1529.62 1065.63L1529.59 1062.33L1525.11 1062.39Z" fill="#E9EAEA"/>
<path fill-rule="evenodd" clip-rule="evenodd" d="M1495.29 1062.93L1495.33 1066.22L1499.8 1066.18L1499.76 1062.87L1495.29 1062.93Z" fill="#E9EAEA"/>
<path fill-rule="evenodd" clip-rule="evenodd" d="M1507.03 1062.7L1507.08 1066.01L1511.54 1065.95L1511.5 1062.65L1507.03 1062.7Z" fill="#E9EAEA"/>
<path fill-rule="evenodd" clip-rule="evenodd" d="M1548.32 1061.74L1548.36 1065.04L1552.83 1064.99L1552.78 1061.68L1548.32 1061.74Z" fill="#E9EAEA"/>
<path fill-rule="evenodd" clip-rule="evenodd" d="M1530.89 1062.28L1530.93 1065.58L1535.4 1065.53L1535.36 1062.22L1530.89 1062.28Z" fill="#E9EAEA"/>
<path fill-rule="evenodd" clip-rule="evenodd" d="M1541.46 1061.96L1541.49 1065.25L1545.96 1065.21L1545.93 1061.89L1541.46 1061.96Z" fill="#E9EAEA"/>
<path fill-rule="evenodd" clip-rule="evenodd" d="M1501.16 1062.81L1501.19 1066.11L1505.66 1066.06L1505.62 1062.76L1501.16 1062.81Z" fill="#E9EAEA"/>
<path fill-rule="evenodd" clip-rule="evenodd" d="M1702.22 1179.27L1702.34 1181.4L1704.32 1181.23L1704.21 1179.1L1702.22 1179.27Z" fill="#E9EAEA"/>
<path d="M1530.45 1161.06L1452.03 1163.06" stroke="#BBBBBB" stroke-opacity="0.07" stroke-width="4.66667" stroke-dasharray="5.33 2.67"/>
<path d="M1530.45 1161.06L1452.03 1163.06" stroke="#F2F2F2" stroke-width="2.53333" stroke-linecap="round" stroke-linejoin="round"/>
<path d="M1681.92 1169.65L1681.99 1172.36L1680.98 1175.45L1679.02 1178.04L1676.3 1179.85L1673.13 1180.68L1669.95 1180.44L1667 1179.2L1664.62 1177.09L1662.78 1173.26" stroke="#BBBBBB" stroke-opacity="0.07" stroke-width="9.33333" stroke-linecap="round" stroke-linejoin="round"/>
<path d="M1662.78 1173.26L1662.73 1168.89L1664.3 1165.25L1666.57 1163.01L1669.43 1161.62L1672.69 1161.21L1675.88 1161.89L1678.68 1163.58L1680.77 1166.07L1681.92 1169.65" stroke="#BBBBBB" stroke-opacity="0.07" stroke-width="9.33333" stroke-linecap="round" stroke-linejoin="round"/>
<path d="M1709.3 859.012L1733.64 1065.11" stroke="#BBBBBB" stroke-opacity="0.07" stroke-width="9.33333" stroke-linecap="round" stroke-linejoin="round"/>
<path d="M1362.17 487.012L1377.43 525.646" stroke="#BBBBBB" stroke-opacity="0.07" stroke-width="9.33333" stroke-linecap="round" stroke-linejoin="round"/>
<path d="M1288.23 672.246L1288.37 697.948L1287.95 701.824L1286.29 705.392L1283.16 709.424L1281.89 714.533V718.831L1283.44 723.902L1287.46 728.344L1299.22 733.715" stroke="#BBBBBB" stroke-opacity="0.07" stroke-width="9.33333" stroke-linecap="round" stroke-linejoin="round"/>
<path d="M1511.68 681.711L1587.63 661.984L1600.85 660.684L1614.96 660.861L1623.45 663.909L1634.21 676.192" stroke="#BBBBBB" stroke-opacity="0.07" stroke-width="9.33333" stroke-linecap="round" stroke-linejoin="round"/>
<path d="M1416.81 1465.82L1476.15 1466.12" stroke="#BBBBBB" stroke-opacity="0.07" stroke-width="9.33333" stroke-linecap="round" stroke-linejoin="round"/>
<path d="M1574.39 1159.69L1530.45 1161.06" stroke="#BBBBBB" stroke-opacity="0.07" stroke-width="4.66667" stroke-linecap="round" stroke-linejoin="round"/>
<path d="M1556.72 641.981L1568.47 638.392L1574.52 636.56L1645.31 618.074" stroke="#BBBBBB" stroke-opacity="0.07" stroke-width="9.33333" stroke-linecap="round" stroke-linejoin="round"/>
<path d="M1452.03 1163.06L1416.43 1163.96" stroke="#BBBBBB" stroke-opacity="0.07" stroke-width="4.66667" stroke-linecap="round" stroke-linejoin="round"/>
<path d="M1045.86 1226.9L964.156 1193.54" stroke="#BBBBBB" stroke-opacity="0.07" stroke-width="9.33333" stroke-linecap="round" stroke-linejoin="round"/>
<path d="M1125.24 1150.17L1099.12 1130.3L1096.49 1127L1094.63 1122.69L1091.77 1109.34L1089.81 1064.49L1124.02 1051.11" stroke="#BBBBBB" stroke-opacity="0.07" stroke-width="9.33333" stroke-linecap="round" stroke-linejoin="round"/>
<path d="M1046.21 1109.8L1091.76 1109.34" stroke="#BBBBBB" stroke-opacity="0.07" stroke-width="9.33333" stroke-linecap="round" stroke-linejoin="round"/>
<path d="M1248.08 589.504L1228.2 592.105L1213.01 598.911" stroke="#BBBBBB" stroke-opacity="0.07" stroke-width="4.66667" stroke-linecap="round" stroke-linejoin="round"/>
<path d="M1566.51 856.373L1570.79 896.503L1575.59 941.737L1577.92 961.839L1582.12 1000.77L1586.36 1039.95L1591.94 1045.95L1699.68 1035.38L1704.73 1029.5L1706.81 1017.67L1699.05 948.771L1696.81 928.829L1687.17 843.195L1566.51 856.373Z" stroke="#BBBBBB" stroke-opacity="0.07" stroke-width="9.33333" stroke-linecap="round" stroke-linejoin="round"/>
<path d="M1575.58 941.736L1696.81 928.828" stroke="#BBBBBB" stroke-opacity="0.07" stroke-width="9.33333" stroke-linecap="round" stroke-linejoin="round"/>
<path d="M1577.92 961.838L1699.05 948.77" stroke="#BBBBBB" stroke-opacity="0.07" stroke-width="9.33333" stroke-linecap="round" stroke-linejoin="round"/>
<path d="M1570.79 896.5L1544.36 899.136" stroke="#BBBBBB" stroke-opacity="0.07" stroke-width="9.33333" stroke-linecap="round" stroke-linejoin="round"/>
<path d="M1582.12 1000.76L1555.76 1003.72" stroke="#BBBBBB" stroke-opacity="0.07" stroke-width="9.33333" stroke-linecap="round" stroke-linejoin="round"/>
<path d="M1615.41 580.505L1621.1 576.184" stroke="#8F8F8F" stroke-width="16" stroke-linecap="round" stroke-linejoin="round"/>
<path d="M1247.26 570.668L1248.08 589.504L1250.78 666.777" stroke="#BBBBBB" stroke-opacity="0.07" stroke-width="16" stroke-linecap="round" stroke-linejoin="round"/>
<path d="M1301.26 949.35L1355.53 995.597L1400.3 1040.1L1414.31 1075.71L1416.42 1163.97L1417.63 1264.37L1418.58 1296.72L1418.65 1367.48L1418.41 1401.08L1389.21 1422.76L1375.41 1426.54L1305.13 1427.79L1275.76 1428.73L1240.17 1428.51L1187.92 1425.54L1141 1410.42L1133.59 1403.84L1131.44 1348.47L1128.9 1260.7L1125.23 1150.18L1122.7 1080.28L1122.47 1062.23L1124.02 1051.11L1133.58 1034.82L1151.5 1015.82L1171.6 997.514L1205.38 969.161L1219.65 956.41L1229.58 944.363" stroke="#BBBBBB" stroke-opacity="0.07" stroke-width="16" stroke-linecap="round" stroke-linejoin="round"/>
<path d="M1726.27 1880.72L1714.97 1876.4L1670.35 1863.44L1606.28 1842.16L1595.41 1838.4L1579.66 1833.64L1562.09 1828.24L1540.49 1822.18L1431.92 1789.48L1286.95 1743.83L1196.72 1711.14L1161.5 1699.75L1126.84 1682.69L1101.61 1672.32L1060.95 1654.77L1023.56 1638.79L990.02 1625.95L956.478 1611.52L939.336 1603.8L922.893 1597.07L883.836 1582.71L845.323 1566.14L829.331 1558.35L804.789 1549.39L763.893 1531.99L710.508 1508.74" stroke="#BBBBBB" stroke-opacity="0.07" stroke-width="16" stroke-linecap="round" stroke-linejoin="round"/>
<path d="M852.896 865.979L972.719 804.679L1041.91 769.317L1243.17 674.449" stroke="#BBBBBB" stroke-opacity="0.07" stroke-width="16" stroke-linecap="round" stroke-linejoin="round"/>
<path d="M1593.97 1293.87L1418.59 1296.72" stroke="#BBBBBB" stroke-opacity="0.07" stroke-width="16" stroke-linecap="round" stroke-linejoin="round"/>
<path d="M1531.37 780.039L1458.55 780.773L1394.33 782.131L1254.29 782.949" stroke="#BBBBBB" stroke-opacity="0.07" stroke-width="16" stroke-linecap="round" stroke-linejoin="round"/>
<path d="M1455.09 440.484L1488.66 528.187L1537.81 656.61" stroke="#BBBBBB" stroke-opacity="0.07" stroke-width="16" stroke-linecap="round" stroke-linejoin="round"/>
<path d="M1133.59 1403.84L1110.75 1470.49L1092.43 1523.96" stroke="#BBBBBB" stroke-opacity="0.07" stroke-width="16" stroke-linecap="round" stroke-linejoin="round"/>
<path d="M1219.77 1589.55L1284.36 1607.07L1440.01 1655.91" stroke="#BBBBBB" stroke-opacity="0.07" stroke-width="16" stroke-linecap="round" stroke-linejoin="round"/>
<path d="M1070.35 1516.93L1092.43 1523.96L1225.61 1567.72" stroke="#BBBBBB" stroke-opacity="0.07" stroke-width="16" stroke-linecap="round" stroke-linejoin="round"/>
<path d="M1275.76 1428.73L1244.59 1513.67L1236.27 1537.39L1225.61 1567.72L1219.78 1589.55L1210.2 1623.55L1197.31 1656.61L1193.85 1660.76L1187.78 1661.75L1005.54 1599.99L1002.24 1594.14L1001.89 1587.12L1014.59 1548.36" stroke="#BBBBBB" stroke-opacity="0.07" stroke-width="16" stroke-linecap="round" stroke-linejoin="round"/>
<path d="M1556.04 505.918L1533.26 514.156L1529.98 515.566L1531.08 519.13L1552.54 584.998L1565.48 624.718" stroke="#BBBBBB" stroke-opacity="0.07" stroke-width="16" stroke-linecap="round" stroke-linejoin="round"/>
<path d="M1041.91 769.32L1205.38 969.16" stroke="#BBBBBB" stroke-opacity="0.07" stroke-width="16" stroke-linecap="round" stroke-linejoin="round"/>
<path d="M972.724 804.684L1048.55 894.117L1101.37 956.034L1151.5 1015.82" stroke="#BBBBBB" stroke-opacity="0.07" stroke-width="16" stroke-linecap="round" stroke-linejoin="round"/>
<path d="M794.291 745.582L801.245 759.866L808.147 774.041L852.898 865.982L887.853 934.283L904.054 966.728L940.06 1038.85" stroke="#BBBBBB" stroke-opacity="0.07" stroke-width="16" stroke-linecap="round" stroke-linejoin="round"/>
<path d="M1187.92 1425.54L1168.36 1489.06" stroke="#BBBBBB" stroke-opacity="0.07" stroke-width="16" stroke-linecap="round" stroke-linejoin="round"/>
<path d="M1131.44 1348.47L1240.26 1349.89" stroke="#BBBBBB" stroke-opacity="0.07" stroke-width="16" stroke-linecap="round" stroke-linejoin="round"/>
<path d="M1417.64 1264.37L1303.38 1262.8L1305.13 1427.78" stroke="#BBBBBB" stroke-opacity="0.07" stroke-width="16" stroke-linecap="round" stroke-linejoin="round"/>
<path d="M1128.91 1260.7L1239.72 1262.27L1240.26 1349.89L1240.17 1428.51" stroke="#BBBBBB" stroke-opacity="0.07" stroke-width="16" stroke-linecap="round" stroke-linejoin="round"/>
<path d="M1418.42 1401.07L1416.81 1465.82L1415.29 1498.29L1418.93 1597.74" stroke="#BBBBBB" stroke-opacity="0.07" stroke-width="16" stroke-linecap="round" stroke-linejoin="round"/>
<path d="M912.571 1338.03L1008.95 1367.63L997.068 1402.12" stroke="#BBBBBB" stroke-opacity="0.07" stroke-width="16" stroke-linecap="round" stroke-linejoin="round"/>
<path d="M904.055 966.729L1048.55 894.117" stroke="#BBBBBB" stroke-opacity="0.07" stroke-width="16" stroke-linecap="round" stroke-linejoin="round"/>
<path d="M1394.33 782.137L1396.16 858.456" stroke="#BBBBBB" stroke-opacity="0.07" stroke-width="16" stroke-linecap="round" stroke-linejoin="round"/>
<path d="M1229.58 944.362L1239.69 923.179L1255.62 882.965L1260.31 895.708L1264.42 907.222L1275.98 924.686L1289.22 938.51L1301.26 949.349" stroke="#BBBBBB" stroke-opacity="0.07" stroke-width="16" stroke-linecap="round" stroke-linejoin="round"/>
<path d="M1261.06 673.183L1288.23 672.246L1483.17 668.438L1500.66 672.753L1511.68 681.713L1519.36 692.382L1524.35 706.798L1531.37 780.038L1544.36 899.138L1555.76 1003.72L1563.03 1070.34L1566.04 1093.64L1574.39 1159.69L1581.1 1208.1L1591.54 1279.22L1593.97 1293.87L1619.71 1438.01L1630.43 1509.56L1629.26 1526.76L1624.02 1540.59L1542.97 1617.74L1523.43 1624.92L1511.43 1624.24L1452.02 1608.59L1440.01 1655.91L1415.56 1742.02L1413.32 1747.65L1407.45 1751.94L1400.29 1751.67L1237.76 1698.4L1222.43 1689.33L1215.87 1681.84L1210.06 1669.47L1210.2 1623.55" stroke="#BBBBBB" stroke-opacity="0.07" stroke-width="16" stroke-linecap="round" stroke-linejoin="round"/>
<path d="M1251.75 685.254L1254.3 782.955L1255.64 882.966" stroke="#BBBBBB" stroke-opacity="0.07" stroke-width="16" stroke-linecap="round" stroke-linejoin="round"/>
<path d="M1236.26 1537.39L1418.92 1597.74L1452.02 1608.59" stroke="#BBBBBB" stroke-opacity="0.07" stroke-width="16" stroke-linecap="round" stroke-linejoin="round"/>
<path d="M1110.74 1470.48L1168.36 1489.06L1244.59 1513.67" stroke="#BBBBBB" stroke-opacity="0.07" stroke-width="16" stroke-linecap="round" stroke-linejoin="round"/>
<path d="M1227.83 533.574L1234.42 546.271" stroke="#BBBBBB" stroke-opacity="0.07" stroke-width="16" stroke-linecap="round" stroke-linejoin="round"/>
<path d="M1488.66 528.187L1529.98 515.566" stroke="#BBBBBB" stroke-opacity="0.07" stroke-width="16" stroke-linecap="round" stroke-linejoin="round"/>
<path d="M1459.99 853.009L1458.55 780.773" stroke="#BBBBBB" stroke-opacity="0.07" stroke-width="16" stroke-linecap="round" stroke-linejoin="round"/>
<path d="M1303.38 1262.8L1239.73 1262.27" stroke="#BBBBBB" stroke-opacity="0.07" stroke-width="16" stroke-linecap="round" stroke-linejoin="round"/>
<path d="M1247.25 570.667L1240.99 567.703L1236.73 563.367L1233.81 559.829L1227.79 549.543" stroke="#BBBBBB" stroke-opacity="0.07" stroke-width="16" stroke-linecap="round" stroke-linejoin="round"/>
<path d="M1254.69 536.887L1256.03 553.312L1255.33 558.252L1253.73 561.959L1247.26 570.67" stroke="#BBBBBB" stroke-opacity="0.07" stroke-width="16" stroke-linecap="round" stroke-linejoin="round"/>
<path d="M902.16 1049.96L919.71 1046.73L940.06 1038.84L1101.37 956.031" stroke="#BBBBBB" stroke-opacity="0.07" stroke-width="16" stroke-linecap="round" stroke-linejoin="round"/>
<path d="M762.957 1301.95L777.715 1307.91L904.155 1358.9L912.572 1338.03L941.148 1253.93L964.153 1193.54L1005.28 1085.61" stroke="#BBBBBB" stroke-opacity="0.07" stroke-width="16" stroke-linecap="round" stroke-linejoin="round"/>
<path d="M1552.54 585.001L1604.19 566.574" stroke="#BBBBBB" stroke-opacity="0.07" stroke-width="16" stroke-linecap="round" stroke-linejoin="round"/>
<path d="M1244.24 671.536L1246.21 669.138L1248.87 667.537L1250.77 666.777L1254.88 667.259L1257.56 668.521L1259.69 670.569L1261.07 673.183L1261.54 676.088L1261.05 679.001L1259.68 681.602L1257.53 683.637L1254.85 684.904L1251.75 685.25L1248.71 684.553L1246.08 682.903L1244.14 680.47L1243.14 677.544L1243.17 674.449L1244.24 671.536Z" stroke="#BBBBBB" stroke-opacity="0.07" stroke-width="16" stroke-linecap="round" stroke-linejoin="round"/>
<path d="M1686.77 666.186L1682.4 663.957L1679.46 661.744L1645.31 618.073L1615.41 580.506L1604.19 566.572L1556.04 505.918L1507.89 448.182L1505.41 444.69L1503.61 440.932L1501.22 431.09" stroke="#8F8F8F" stroke-width="24" stroke-linecap="round" stroke-linejoin="round"/>
<path d="M1501.22 431.092L1494.11 420.059L1485.67 409.148" stroke="#8F8F8F" stroke-width="24" stroke-linecap="round" stroke-linejoin="round"/>
<path d="M1501.22 431.09L1507.25 436.292L1510.59 439.041L1512.96 442.233L1539.44 474.846L1561.31 501.088L1621.1 576.183L1650.58 613.23L1684.73 656.914L1686.75 660.647L1686.77 666.186" stroke="#8F8F8F" stroke-width="24" stroke-linecap="round" stroke-linejoin="round"/>
<path d="M496.512 867.28L506.844 861.694L525.917 851.949L552.366 839.231L595.393 820.31L644.796 802.209L794.292 745.579L1008.47 644.458L1080.77 607.968L1227.82 533.57L1315.12 492.888L1350.14 475.171L1443.33 430.03L1485.68 409.146L1563.71 369.439L1631.11 338.134L1705.49 300.788L1726.59 289.696L1743.62 281.289L1857.74 225.284L1891.26 208.314L1968.47 168.603L2010.14 148.5L2028.19 138.708L2103.97 99.0224L2128.84 86.0514L2152.98 72.202L2216.17 40.0319L2276.28 12.0039" stroke="#B9B9B9" stroke-width="24" stroke-linecap="round" stroke-linejoin="round"/>
<path d="M2272.67 28.5781L2154.99 87.1042L2136.29 96.2329L2024.38 155.574L1973.12 179.975L1898.84 218.66L1863.93 235.267L1747.95 292.669L1710.3 311.856L1636.53 349.207L1494.11 420.058L1455.09 440.486L1362.18 487.012L1254.69 536.886L1234.42 546.268L1227.79 549.545L1015.89 654.289L801.246 759.865L685.019 801.619L562.204 845.063L535.994 856.996L499.733 874.303" stroke="#B9B9B9" stroke-width="24" stroke-linecap="round" stroke-linejoin="round"/>
<path d="M1564.57 1449.5L1566.46 1548.53L1559.06 1564.82L1550.85 1574.37L1539.42 1582.17L1526.98 1587.05L1516.08 1586.18L1506.64 1582.77L1497.79 1577.52L1489.59 1571.99L1486.16 1563.47L1481.98 1556.05L1478.97 1546.15L1476.15 1466.12L1476.07 1455.08L1477.67 1443.43L1478.73 1436.62L1482.76 1428.97L1487.88 1422.96L1495.37 1417.96L1504.28 1414.29L1512.3 1411.55L1521.09 1410.54L1528.89 1411.79L1535.52 1413.41L1543.67 1417.44L1553.48 1427.03L1560.24 1435.02L1564.57 1449.5Z" stroke="white" stroke-opacity="0.4" stroke-width="4.4" stroke-linecap="round" stroke-linejoin="round"/>
<path d="M1564.57 1449.5L1566.46 1548.53L1559.06 1564.82L1550.85 1574.37L1539.42 1582.17L1526.98 1587.05L1516.08 1586.18L1506.64 1582.77L1497.79 1577.52L1489.59 1571.99L1486.16 1563.47L1481.98 1556.05L1478.97 1546.15L1476.15 1466.12L1476.07 1455.08L1477.67 1443.43L1478.73 1436.62L1482.76 1428.97L1487.88 1422.96L1495.37 1417.96L1504.28 1414.29L1512.3 1411.55L1521.09 1410.54L1528.89 1411.79L1535.52 1413.41L1543.67 1417.44L1553.48 1427.03L1560.24 1435.02L1564.57 1449.5Z" stroke="#FA8072" stroke-width="1.73333" stroke-linecap="round" stroke-linejoin="round" stroke-dasharray="1.33 5.33"/>
<path d="M1414.31 1075.71L1360.79 1076.93L1305.73 1078.13L1285.9 1078.23L1281.48 1078.29L1270.63 1078.42L1248.36 1078.75H1244.54L1241.54 1078.77L1238.57 1078.75L1220.62 1078.62L1122.71 1080.27" stroke="white" stroke-opacity="0.4" stroke-width="4.4" stroke-linecap="round" stroke-linejoin="round"/>
<path d="M1414.31 1075.71L1360.79 1076.93L1305.73 1078.13L1285.9 1078.23L1281.48 1078.29L1270.63 1078.42L1248.36 1078.75H1244.54L1241.54 1078.77L1238.57 1078.75L1220.62 1078.62L1122.71 1080.27" stroke="#FA8072" stroke-width="1.73333" stroke-linecap="round" stroke-linejoin="round" stroke-dasharray="1.33 5.33 2.67 4"/>
<path d="M1772.9 1318.62L1764.11 1322.44L1732.58 1327.18L1662.31 1336.52L1639.05 1339.76L1633.38 1337.79L1630.89 1334.25L1624.11 1276.91L1615.47 1204.31L1613.43 1185.17L1613.86 1179.87L1619.33 1177.21L1655.81 1173.59L1662.77 1173.26" stroke="white" stroke-opacity="0.4" stroke-width="4.4" stroke-linecap="round" stroke-linejoin="round"/>
<path d="M1772.9 1318.62L1764.11 1322.44L1732.58 1327.18L1662.31 1336.52L1639.05 1339.76L1633.38 1337.79L1630.89 1334.25L1624.11 1276.91L1615.47 1204.31L1613.43 1185.17L1613.86 1179.87L1619.33 1177.21L1655.81 1173.59L1662.77 1173.26" stroke="#FA8072" stroke-width="1.73333" stroke-linecap="round" stroke-linejoin="round" stroke-dasharray="1.33 5.33 2.67 4"/>
<path d="M1171.6 997.508L1227.3 997.34L1238.8 997.314L1258.8 996.905L1303.8 996.821L1355.54 995.594" stroke="white" stroke-opacity="0.4" stroke-width="4.4" stroke-linecap="round" stroke-linejoin="round"/>
<path d="M1171.6 997.508L1227.3 997.34L1238.8 997.314L1258.8 996.905L1303.8 996.821L1355.54 995.594" stroke="#FA8072" stroke-width="1.73333" stroke-linecap="round" stroke-linejoin="round" stroke-dasharray="1.33 5.33 2.67 4"/>
<path d="M1305.74 1078.13L1304.44 1035.98L1303.94 1010.54L1303.8 996.824" stroke="white" stroke-opacity="0.4" stroke-width="4.4" stroke-linecap="round" stroke-linejoin="round"/>
<path d="M1305.74 1078.13L1304.44 1035.98L1303.94 1010.54L1303.8 996.824" stroke="#FA8072" stroke-width="1.73333" stroke-linecap="round" stroke-linejoin="round" stroke-dasharray="1.33 5.33 2.67 4"/>
<path d="M1259.59 1036.22L1269.6 1036.26L1270.14 1058.67L1247.9 1058.83L1247.41 1036.5L1259.59 1036.22Z" stroke="white" stroke-opacity="0.4" stroke-width="4.4" stroke-linecap="round" stroke-linejoin="round"/>
<path d="M1259.59 1036.22L1269.6 1036.26L1270.14 1058.67L1247.9 1058.83L1247.41 1036.5L1259.59 1036.22Z" stroke="#FA8072" stroke-width="1.73333" stroke-linecap="round" stroke-linejoin="round" stroke-dasharray="1.33 5.33 2.67 4"/>
<path d="M1247.89 1058.83L1248.11 1067.91L1248.37 1078.75" stroke="white" stroke-opacity="0.4" stroke-width="4.4" stroke-linecap="round" stroke-linejoin="round"/>
<path d="M1247.89 1058.83L1248.11 1067.91L1248.37 1078.75" stroke="#FA8072" stroke-width="1.73333" stroke-linecap="round" stroke-linejoin="round" stroke-dasharray="1.33 5.33 2.67 4"/>
<path d="M1270.13 1058.67L1270.38 1067.61L1270.64 1078.42" stroke="white" stroke-opacity="0.4" stroke-width="4.4" stroke-linecap="round" stroke-linejoin="round"/>
<path d="M1270.13 1058.67L1270.38 1067.61L1270.64 1078.42" stroke="#FA8072" stroke-width="1.73333" stroke-linecap="round" stroke-linejoin="round" stroke-dasharray="1.33 5.33 2.67 4"/>
<path d="M1269.59 1036.25L1304.44 1035.98" stroke="white" stroke-opacity="0.4" stroke-width="4.4" stroke-linecap="round" stroke-linejoin="round"/>
<path d="M1269.59 1036.25L1304.44 1035.98" stroke="#FA8072" stroke-width="1.73333" stroke-linecap="round" stroke-linejoin="round" stroke-dasharray="1.33 5.33 2.67 4"/>
<path d="M1602.9 1128.7L1642.37 1157.9L1649.84 1164.29L1655.81 1173.59" stroke="white" stroke-opacity="0.4" stroke-width="4.4" stroke-linecap="round" stroke-linejoin="round"/>
<path d="M1602.9 1128.7L1642.37 1157.9L1649.84 1164.29L1655.81 1173.59" stroke="#FA8072" stroke-width="1.73333" stroke-linecap="round" stroke-linejoin="round" stroke-dasharray="1.33 5.33 2.67 4"/>
<path d="M1692.11 1197.17L1692.68 1169.24L1691.94 1156.09" stroke="white" stroke-opacity="0.4" stroke-width="4.4" stroke-linecap="round" stroke-linejoin="round"/>
<path d="M1692.11 1197.17L1692.68 1169.24L1691.94 1156.09" stroke="#FA8072" stroke-width="1.73333" stroke-linecap="round" stroke-linejoin="round" stroke-dasharray="1.33 5.33 2.67 4"/>
<path d="M1581.1 1208.1L1615.48 1204.31L1664.01 1198.67L1692.1 1197.17L1730.82 1195.83L1741.71 1202.77L1752.98 1218.97L1755.35 1225.03L1755.76 1228.66L1756.48 1238.65L1755.31 1247.91L1749.09 1255.62L1738.2 1266.03L1732.39 1267.89L1729.42 1270.67L1728.9 1275.61L1731.6 1318.89L1732.58 1327.18" stroke="white" stroke-opacity="0.4" stroke-width="4.4" stroke-linecap="round" stroke-linejoin="round"/>
<path d="M1581.1 1208.1L1615.48 1204.31L1664.01 1198.67L1692.1 1197.17L1730.82 1195.83L1741.71 1202.77L1752.98 1218.97L1755.35 1225.03L1755.76 1228.66L1756.48 1238.65L1755.31 1247.91L1749.09 1255.62L1738.2 1266.03L1732.39 1267.89L1729.42 1270.67L1728.9 1275.61L1731.6 1318.89L1732.58 1327.18" stroke="#FA8072" stroke-width="1.73333" stroke-linecap="round" stroke-linejoin="round" stroke-dasharray="1.33 5.33 2.67 4"/>
<path d="M1755.76 1228.66L1768.07 1226.93" stroke="white" stroke-opacity="0.4" stroke-width="4.4" stroke-linecap="round" stroke-linejoin="round"/>
<path d="M1755.76 1228.66L1768.07 1226.93" stroke="#FA8072" stroke-width="1.73333" stroke-linecap="round" stroke-linejoin="round" stroke-dasharray="1.33 5.33 2.67 4"/>
<path d="M1602.9 1128.7L1566.04 1093.64" stroke="white" stroke-opacity="0.4" stroke-width="4.4" stroke-linecap="round" stroke-linejoin="round"/>
<path d="M1602.9 1128.7L1566.04 1093.64" stroke="#FA8072" stroke-width="1.73333" stroke-linecap="round" stroke-linejoin="round" stroke-dasharray="1.33 5.33 2.67 4"/>
<path d="M1662.31 1336.53L1656.55 1284.94L1655.05 1279.88L1648.64 1276.22L1624.11 1276.91L1591.54 1279.22" stroke="white" stroke-opacity="0.4" stroke-width="4.4" stroke-linecap="round" stroke-linejoin="round"/>
<path d="M1662.31 1336.53L1656.55 1284.94L1655.05 1279.88L1648.64 1276.22L1624.11 1276.91L1591.54 1279.22" stroke="#FA8072" stroke-width="1.73333" stroke-linecap="round" stroke-linejoin="round" stroke-dasharray="1.33 5.33 2.67 4"/>
<path d="M1681.92 1169.65L1692.67 1169.24L1759.82 1162.11" stroke="white" stroke-opacity="0.4" stroke-width="4.4" stroke-linecap="round" stroke-linejoin="round"/>
<path d="M1681.92 1169.65L1692.67 1169.24L1759.82 1162.11" stroke="#FA8072" stroke-width="1.73333" stroke-linecap="round" stroke-linejoin="round" stroke-dasharray="1.33 5.33 2.67 4"/>
<path d="M1247.41 1036.5H1238.34L1232.65 1035.91L1229.28 1033.59L1227.56 1030.35L1227.3 997.344" stroke="white" stroke-opacity="0.4" stroke-width="4.4" stroke-linecap="round" stroke-linejoin="round"/>
<path d="M1247.41 1036.5H1238.34L1232.65 1035.91L1229.28 1033.59L1227.56 1030.35L1227.3 997.344" stroke="#FA8072" stroke-width="1.73333" stroke-linecap="round" stroke-linejoin="round" stroke-dasharray="1.33 5.33 2.67 4"/>
<path d="M1248.11 1067.91L1270.38 1067.6L1281.48 1078.28" stroke="white" stroke-opacity="0.4" stroke-width="4.4" stroke-linecap="round" stroke-linejoin="round"/>
<path d="M1248.11 1067.91L1270.38 1067.6L1281.48 1078.28" stroke="#FA8072" stroke-width="1.73333" stroke-linecap="round" stroke-linejoin="round" stroke-dasharray="1.33 5.33 2.67 4"/>
<path d="M1248.11 1067.91L1238.58 1078.75" stroke="white" stroke-opacity="0.4" stroke-width="4.4" stroke-linecap="round" stroke-linejoin="round"/>
<path d="M1248.11 1067.91L1238.58 1078.75" stroke="#FA8072" stroke-width="1.73333" stroke-linecap="round" stroke-linejoin="round" stroke-dasharray="1.33 5.33 2.67 4"/>
<path d="M1255.62 882.965L1258.81 996.909L1259.6 1036.22" stroke="white" stroke-opacity="0.4" stroke-width="4.4" stroke-linecap="round" stroke-linejoin="round"/>
<path d="M1255.62 882.965L1258.81 996.909L1259.6 1036.22" stroke="#FA8072" stroke-width="1.73333" stroke-linecap="round" stroke-linejoin="round" stroke-dasharray="1.33 5.33 2.67 4"/>
<path d="M1681.92 1169.65L1681.99 1172.36L1680.98 1175.45L1679.02 1178.04L1676.3 1179.85L1673.13 1180.68L1669.95 1180.44L1667 1179.2L1664.62 1177.09L1662.78 1173.26" stroke="#FFFFF7" stroke-width="4" stroke-linecap="round" stroke-linejoin="round"/>
<path d="M1681.92 1169.65L1681.99 1172.36L1680.98 1175.45L1679.02 1178.04L1676.3 1179.85L1673.13 1180.68L1669.95 1180.44L1667 1179.2L1664.62 1177.09L1662.78 1173.26" stroke="#EAEAEA" stroke-width="4" stroke-linecap="round" stroke-linejoin="round" stroke-dasharray="10.67 13.33"/>
<path d="M1662.78 1173.26L1662.73 1168.89L1664.3 1165.25L1666.57 1163.01L1669.43 1161.62L1672.69 1161.21L1675.88 1161.89L1678.68 1163.58L1680.77 1166.07L1681.92 1169.65" stroke="#FFFFF7" stroke-width="4" stroke-linecap="round" stroke-linejoin="round"/>
<path d="M1662.78 1173.26L1662.73 1168.89L1664.3 1165.25L1666.57 1163.01L1669.43 1161.62L1672.69 1161.21L1675.88 1161.89L1678.68 1163.58L1680.77 1166.07L1681.92 1169.65" stroke="#EAEAEA" stroke-width="4" stroke-linecap="round" stroke-linejoin="round" stroke-dasharray="10.67 13.33"/>
<path d="M1709.3 859.012L1733.64 1065.11" stroke="#FFFFF7" stroke-width="4" stroke-linecap="round" stroke-linejoin="round"/>
<path d="M1362.17 487.012L1377.43 525.646" stroke="#FFFFF7" stroke-width="4" stroke-linecap="round" stroke-linejoin="round"/>
<path d="M1288.23 672.246L1288.37 697.948L1287.95 701.824L1286.29 705.392L1283.16 709.424L1281.89 714.533V718.831L1283.44 723.902L1287.46 728.344L1299.22 733.715" stroke="#FFFFF7" stroke-width="4" stroke-linecap="round" stroke-linejoin="round"/>
<path d="M1511.68 681.711L1587.63 661.984L1600.85 660.684L1614.96 660.861L1623.45 663.909L1634.21 676.192" stroke="#FFFFF7" stroke-width="4" stroke-linecap="round" stroke-linejoin="round"/>
<path d="M1416.81 1465.82L1476.15 1466.12" stroke="#FFFFF7" stroke-width="4" stroke-linecap="round" stroke-linejoin="round"/>
<path d="M1574.39 1159.69L1530.45 1161.06" stroke="#FFFFF7" stroke-width="4" stroke-linecap="round" stroke-linejoin="round"/>
<path d="M1556.72 641.981L1568.47 638.392L1574.52 636.56L1645.31 618.074" stroke="#FFFFF7" stroke-width="4" stroke-linecap="round" stroke-linejoin="round"/>
<path d="M1452.03 1163.06L1416.43 1163.96" stroke="#FFFFF7" stroke-width="4" stroke-linecap="round" stroke-linejoin="round"/>
<path d="M1045.86 1226.9L964.156 1193.54" stroke="#FFFFF7" stroke-width="4" stroke-linecap="round" stroke-linejoin="round"/>
<path d="M1125.24 1150.17L1099.12 1130.3L1096.49 1127L1094.63 1122.69L1091.77 1109.34L1089.81 1064.49L1124.02 1051.11" stroke="#FFFFF7" stroke-width="4" stroke-linecap="round" stroke-linejoin="round"/>
<path d="M1046.21 1109.8L1091.76 1109.34" stroke="#FFFFF7" stroke-width="4" stroke-linecap="round" stroke-linejoin="round"/>
<path d="M1248.08 589.504L1228.2 592.105L1213.01 598.911" stroke="#FFFFF7" stroke-width="4" stroke-linecap="round" stroke-linejoin="round"/>
<path d="M1566.51 856.373L1570.79 896.503L1575.59 941.737L1577.92 961.839L1582.12 1000.77L1586.36 1039.95L1591.94 1045.95L1699.68 1035.38L1704.73 1029.5L1706.81 1017.67L1699.05 948.771L1696.81 928.829L1687.17 843.195L1566.51 856.373Z" stroke="#FFFFF7" stroke-width="4" stroke-linecap="round" stroke-linejoin="round"/>
<path d="M1575.58 941.736L1696.81 928.828" stroke="#FFFFF7" stroke-width="4" stroke-linecap="round" stroke-linejoin="round"/>
<path d="M1577.92 961.838L1699.05 948.77" stroke="#FFFFF7" stroke-width="4" stroke-linecap="round" stroke-linejoin="round"/>
<path d="M1570.79 896.5L1544.36 899.136" stroke="#FFFFF7" stroke-width="4" stroke-linecap="round" stroke-linejoin="round"/>
<path d="M1582.12 1000.76L1555.76 1003.72" stroke="#FFFFF7" stroke-width="4" stroke-linecap="round" stroke-linejoin="round"/>
<path d="M1615.41 580.505L1621.1 576.184" stroke="#FFFFF7" stroke-width="4" stroke-linecap="round" stroke-linejoin="round"/>
<path d="M1247.26 570.668L1248.08 589.504L1250.78 666.777" stroke="#FFFFF7" stroke-width="4" stroke-linecap="round" stroke-linejoin="round"/>
<path d="M1301.26 949.35L1355.53 995.597L1400.3 1040.1L1414.31 1075.71L1416.42 1163.97L1417.63 1264.37L1418.58 1296.72L1418.65 1367.48L1418.41 1401.08L1389.21 1422.76L1375.41 1426.54L1305.13 1427.79L1275.76 1428.73L1240.17 1428.51L1187.92 1425.54L1141 1410.42L1133.59 1403.84L1131.44 1348.47L1128.9 1260.7L1125.23 1150.18L1122.7 1080.28L1122.47 1062.23L1124.02 1051.11L1133.58 1034.82L1151.5 1015.82L1171.6 997.514L1205.38 969.161L1219.65 956.41L1229.58 944.363" stroke="#FFFFF7" stroke-width="4" stroke-linecap="round" stroke-linejoin="round"/>
<path d="M1726.26 1880.72L1714.97 1876.4L1670.35 1863.44L1606.28 1842.16L1595.41 1838.4L1579.66 1833.64L1562.09 1828.24L1540.49 1822.18L1431.92 1789.48L1286.95 1743.83L1196.72 1711.14L1161.5 1699.75L1126.84 1682.69L1101.61 1672.32L1060.95 1654.77L1023.56 1638.79L990.019 1625.95L956.477 1611.52L939.336 1603.8L922.892 1597.07L883.835 1582.71L845.322 1566.14L829.33 1558.35L804.789 1549.39L763.893 1531.99L710.507 1508.74" stroke="#FFFFF7" stroke-width="4" stroke-linecap="round" stroke-linejoin="round"/>
<path d="M852.896 865.979L972.719 804.679L1041.91 769.317L1243.17 674.449" stroke="#FFFFF7" stroke-width="4" stroke-linecap="round" stroke-linejoin="round"/>
<path d="M1593.97 1293.87L1418.59 1296.72" stroke="#FFFFF7" stroke-width="4" stroke-linecap="round" stroke-linejoin="round"/>
<path d="M1531.37 780.039L1458.55 780.773L1394.33 782.131L1254.29 782.949" stroke="#FFFFF7" stroke-width="4" stroke-linecap="round" stroke-linejoin="round"/>
<path d="M1748.18 1064.34L1759.82 1162.11L1768.07 1226.93L1776.17 1309.54L1772.9 1318.63" stroke="#FFFFF7" stroke-width="4" stroke-linecap="round" stroke-linejoin="round"/>
<path d="M1414.31 1075.71L1563.02 1070.34L1595.9 1069.35L1733.64 1065.11L1748.17 1064.34L1923.81 1062.75L1931.3 1067.08L1935.51 1074.64L1948.42 1192.76L1945.19 1201.71L1938.57 1205.44L1768.06 1226.93" stroke="#FFFFF7" stroke-width="4" stroke-linecap="round" stroke-linejoin="round"/>
<path d="M1455.09 440.484L1488.66 528.187L1537.81 656.61" stroke="#FFFFF7" stroke-width="4" stroke-linecap="round" stroke-linejoin="round"/>
<path d="M1133.59 1403.84L1110.75 1470.49L1092.43 1523.96" stroke="#FFFFF7" stroke-width="4" stroke-linecap="round" stroke-linejoin="round"/>
<path d="M1219.77 1589.55L1284.36 1607.07L1440.01 1655.91" stroke="#FFFFF7" stroke-width="4" stroke-linecap="round" stroke-linejoin="round"/>
<path d="M1070.35 1516.93L1092.43 1523.96L1225.61 1567.72" stroke="#FFFFF7" stroke-width="4" stroke-linecap="round" stroke-linejoin="round"/>
<path d="M1275.76 1428.73L1244.59 1513.67L1236.27 1537.39L1225.61 1567.72L1219.78 1589.55L1210.2 1623.55L1197.31 1656.61L1193.85 1660.76L1187.78 1661.75L1005.54 1599.99L1002.24 1594.14L1001.89 1587.12L1014.59 1548.36" stroke="#FFFFF7" stroke-width="4" stroke-linecap="round" stroke-linejoin="round"/>
<path d="M1556.04 505.918L1533.26 514.156L1529.98 515.566L1531.08 519.13L1552.54 584.998L1565.48 624.718" stroke="#FFFFF7" stroke-width="4" stroke-linecap="round" stroke-linejoin="round"/>
<path d="M1041.91 769.32L1205.38 969.16" stroke="#FFFFF7" stroke-width="4" stroke-linecap="round" stroke-linejoin="round"/>
<path d="M972.724 804.684L1048.55 894.117L1101.37 956.034L1151.5 1015.82" stroke="#FFFFF7" stroke-width="4" stroke-linecap="round" stroke-linejoin="round"/>
<path d="M794.291 745.582L801.245 759.866L808.147 774.041L852.898 865.982L887.853 934.283L904.054 966.728L940.06 1038.85" stroke="#FFFFF7" stroke-width="4" stroke-linecap="round" stroke-linejoin="round"/>
<path d="M1187.92 1425.54L1168.36 1489.06" stroke="#FFFFF7" stroke-width="4" stroke-linecap="round" stroke-linejoin="round"/>
<path d="M1131.44 1348.47L1240.26 1349.89" stroke="#FFFFF7" stroke-width="4" stroke-linecap="round" stroke-linejoin="round"/>
<path d="M1417.64 1264.37L1303.38 1262.8L1305.13 1427.78" stroke="#FFFFF7" stroke-width="4" stroke-linecap="round" stroke-linejoin="round"/>
<path d="M1128.91 1260.7L1239.72 1262.27L1240.26 1349.89L1240.17 1428.51" stroke="#FFFFF7" stroke-width="4" stroke-linecap="round" stroke-linejoin="round"/>
<path d="M1418.42 1401.07L1416.81 1465.82L1415.29 1498.29L1418.93 1597.74" stroke="#FFFFF7" stroke-width="4" stroke-linecap="round" stroke-linejoin="round"/>
<path d="M912.571 1338.03L1008.95 1367.63L997.068 1402.12" stroke="#FFFFF7" stroke-width="4" stroke-linecap="round" stroke-linejoin="round"/>
<path d="M904.055 966.729L1048.55 894.117" stroke="#FFFFF7" stroke-width="4" stroke-linecap="round" stroke-linejoin="round"/>
<path d="M1394.33 782.137L1396.16 858.456" stroke="#FFFFF7" stroke-width="4" stroke-linecap="round" stroke-linejoin="round"/>
<path d="M1229.58 944.362L1239.69 923.179L1255.62 882.965L1260.31 895.708L1264.42 907.222L1275.98 924.686L1289.22 938.51L1301.26 949.349" stroke="#FFFFF7" stroke-width="4" stroke-linecap="round" stroke-linejoin="round"/>
<path d="M1261.06 673.183L1288.23 672.246L1483.17 668.438L1500.66 672.753L1511.68 681.713L1519.36 692.382L1524.35 706.798L1531.37 780.038L1544.36 899.138L1555.76 1003.72L1563.03 1070.34L1566.04 1093.64L1574.39 1159.69L1581.1 1208.1L1591.54 1279.22L1593.97 1293.87L1619.71 1438.01L1630.43 1509.56L1629.26 1526.76L1624.02 1540.59L1542.97 1617.74L1523.43 1624.92L1511.43 1624.24L1452.02 1608.59L1440.01 1655.91L1415.56 1742.02L1413.32 1747.65L1407.45 1751.94L1400.29 1751.67L1237.76 1698.4L1222.43 1689.33L1215.87 1681.84L1210.06 1669.47L1210.2 1623.55" stroke="#FFFFF7" stroke-width="4" stroke-linecap="round" stroke-linejoin="round"/>
<path d="M1251.75 685.254L1254.3 782.955L1255.64 882.966" stroke="#FFFFF7" stroke-width="4" stroke-linecap="round" stroke-linejoin="round"/>
<path d="M1236.26 1537.39L1418.92 1597.74L1452.02 1608.59" stroke="#FFFFF7" stroke-width="4" stroke-linecap="round" stroke-linejoin="round"/>
<path d="M1110.74 1470.48L1168.36 1489.06L1244.59 1513.67" stroke="#FFFFF7" stroke-width="4" stroke-linecap="round" stroke-linejoin="round"/>
<path d="M1227.83 533.574L1234.42 546.271" stroke="#FFFFF7" stroke-width="4" stroke-linecap="round" stroke-linejoin="round"/>
<path d="M1488.66 528.187L1529.98 515.566" stroke="#FFFFF7" stroke-width="4" stroke-linecap="round" stroke-linejoin="round"/>
<path d="M1459.99 853.009L1458.55 780.773" stroke="#FFFFF7" stroke-width="4" stroke-linecap="round" stroke-linejoin="round"/>
<path d="M1303.38 1262.8L1239.73 1262.27" stroke="#FFFFF7" stroke-width="4" stroke-linecap="round" stroke-linejoin="round"/>
<path d="M1247.25 570.667L1240.99 567.703L1236.73 563.367L1233.81 559.829L1227.79 549.543" stroke="#FFFFF7" stroke-width="4" stroke-linecap="round" stroke-linejoin="round"/>
<path d="M1254.69 536.887L1256.03 553.312L1255.33 558.252L1253.73 561.959L1247.26 570.67" stroke="#FFFFF7" stroke-width="4" stroke-linecap="round" stroke-linejoin="round"/>
<path d="M902.16 1049.96L919.71 1046.73L940.06 1038.84L1101.37 956.031" stroke="#FFFFF7" stroke-width="4" stroke-linecap="round" stroke-linejoin="round"/>
<path d="M762.957 1301.95L777.715 1307.91L904.155 1358.9L912.572 1338.03L941.148 1253.93L964.153 1193.54L1005.28 1085.61" stroke="#FFFFF7" stroke-width="4" stroke-linecap="round" stroke-linejoin="round"/>
<path d="M1552.54 585.001L1604.19 566.574" stroke="#FFFFF7" stroke-width="4" stroke-linecap="round" stroke-linejoin="round"/>
<path d="M1244.24 671.536L1246.21 669.138L1248.87 667.537L1250.77 666.777L1254.88 667.259L1257.56 668.521L1259.69 670.569L1261.07 673.183L1261.54 676.088L1261.05 679.001L1259.68 681.602L1257.53 683.637L1254.85 684.904L1251.75 685.25L1248.71 684.553L1246.08 682.903L1244.14 680.47L1243.14 677.544L1243.17 674.449L1244.24 671.536Z" stroke="#FFFFF7" stroke-width="4" stroke-linecap="round" stroke-linejoin="round"/>
<path d="M1686.77 666.186L1682.4 663.957L1679.46 661.744L1645.31 618.073L1615.41 580.506L1604.19 566.572L1556.04 505.918L1507.89 448.182L1505.41 444.69L1503.61 440.932L1501.22 431.09" stroke="#FFFFF7" stroke-width="4" stroke-linecap="round" stroke-linejoin="round"/>
<path d="M1501.22 431.092L1494.11 420.059L1485.67 409.148" stroke="#FFFFF7" stroke-width="4" stroke-linecap="round" stroke-linejoin="round"/>
<path d="M1501.22 431.09L1507.25 436.292L1510.59 439.041L1512.96 442.233L1539.44 474.846L1561.31 501.088L1621.1 576.183L1650.58 613.23L1684.73 656.914L1686.75 660.647L1686.77 666.186" stroke="#FFFFF7" stroke-width="4" stroke-linecap="round" stroke-linejoin="round"/>
<path d="M496.512 867.28L506.844 861.694L525.917 851.949L552.366 839.231L595.393 820.31L644.796 802.209L794.292 745.579L1008.47 644.458L1080.77 607.968L1227.82 533.57L1315.12 492.888L1350.14 475.171L1443.33 430.03L1485.68 409.146L1563.71 369.439L1631.11 338.134L1705.49 300.788L1726.59 289.696L1743.62 281.289L1857.74 225.284L1891.26 208.314L1968.47 168.603L2010.14 148.5L2028.19 138.708L2103.97 99.0224L2128.84 86.0514L2152.98 72.202L2216.17 40.0319L2276.28 12.0039" stroke="white" stroke-width="21.3333" stroke-linecap="round" stroke-linejoin="round"/>
<path d="M2272.67 28.5781L2154.99 87.1042L2136.29 96.2329L2024.38 155.574L1973.12 179.975L1898.84 218.66L1863.93 235.267L1747.95 292.669L1710.3 311.856L1636.53 349.207L1494.11 420.058L1455.09 440.486L1362.18 487.012L1254.69 536.886L1234.42 546.268L1227.79 549.545L1015.89 654.289L801.246 759.865L685.019 801.619L562.204 845.063L535.994 856.996L499.733 874.303" stroke="white" stroke-width="21.3333" stroke-linecap="round" stroke-linejoin="round"/>
<path d="M1187.43 600.152V613.123H1189.34V607.719H1193.97C1195.78 607.719 1197.24 606.026 1197.24 603.936C1197.24 601.85 1195.78 600.152 1193.97 600.152H1187.43ZM1189.34 602.044H1193.42C1194.38 602.044 1195.15 602.893 1195.15 603.936C1195.15 604.983 1194.38 605.827 1193.42 605.827H1189.34V602.044Z" fill="#0092DA"/>
<path d="M1491.11 1158.65V1171.62H1493.02V1166.22H1497.65C1499.45 1166.22 1500.92 1164.53 1500.92 1162.44C1500.92 1160.35 1499.45 1158.65 1497.65 1158.65H1491.11ZM1493.02 1160.54H1497.11C1498.06 1160.54 1498.83 1161.39 1498.83 1162.44C1498.83 1163.48 1498.06 1164.33 1497.11 1164.33H1493.02V1160.54Z" fill="#0092DA"/>
<path d="M1262.72 1480.58V1484.36C1262.72 1485.92 1263.58 1487.04 1264.8 1487.74L1263.81 1495.71H1265.44L1265.65 1494.12L1268.17 1492.47L1270.69 1494.16L1270.89 1495.71H1272.52L1271.54 1487.77C1272.76 1487.08 1273.61 1485.94 1273.61 1484.36V1480.58H1271.98V1482.2H1271.44C1270.21 1482.74 1269.26 1482.74 1268.17 1482.2C1267.08 1481.66 1266.03 1481.66 1264.9 1482.2H1264.35V1480.58H1262.72ZM1266.36 1488.35C1267.52 1488.63 1268.81 1488.66 1269.97 1488.38L1270.18 1490.07L1268.17 1491.39L1266.16 1490.07L1266.36 1488.35ZM1266.02 1491.05L1267.35 1491.93L1265.78 1492.97L1266.02 1491.05ZM1270.31 1491.05L1270.55 1492.97L1268.98 1491.93L1270.31 1491.05Z" fill="#666666"/>
<path d="M1379.99 1052.46L1379.48 1053.85L1378.19 1054.59L1376.72 1054.33L1375.76 1053.2V1051.72L1376.72 1050.59L1378.19 1050.33L1379.48 1051.07L1379.99 1052.46Z" fill="#C77400"/>
<path d="M1370.66 1039.95L1370.15 1041.34L1368.86 1042.07L1367.39 1041.82L1366.44 1040.69V1039.21L1367.39 1038.07L1368.86 1037.82L1370.15 1038.56L1370.66 1039.95Z" fill="#C77400"/>
<path d="M1152.92 1054.48L1152.41 1055.87L1151.12 1056.61L1149.66 1056.35L1148.7 1055.22V1053.74L1149.66 1052.61L1151.12 1052.35L1152.41 1053.09L1152.92 1054.48Z" fill="#C77400"/>
<path d="M1558.84 1063.42L1558.33 1064.81L1557.04 1065.55L1555.57 1065.29L1554.61 1064.16V1062.68L1555.57 1061.55L1557.04 1061.29L1558.33 1062.03L1558.84 1063.42Z" fill="#C77400"/>
<path d="M1523.38 1064.12L1522.88 1065.51L1521.58 1066.25L1520.11 1065.99L1519.16 1064.86V1063.38L1520.11 1062.25L1521.58 1061.99L1522.88 1062.73L1523.38 1064.12Z" fill="#C77400"/>
<path d="M1517.29 1064.22L1516.77 1065.61L1515.49 1066.35L1514.02 1066.1L1513.06 1064.96V1063.49L1514.02 1062.36L1515.49 1062.1L1516.77 1062.84L1517.29 1064.22Z" fill="#C77400"/>
<path d="M1529.48 1064.01L1528.97 1065.4L1527.68 1066.14L1526.22 1065.89L1525.26 1064.75V1063.28L1526.22 1062.14L1527.68 1061.89L1528.97 1062.63L1529.48 1064.01Z" fill="#C77400"/>
<path d="M1499.66 1064.56L1499.15 1065.95L1497.86 1066.68L1496.39 1066.43L1495.43 1065.3V1063.82L1496.39 1062.68L1497.86 1062.43L1499.15 1063.17L1499.66 1064.56Z" fill="#AC39AC"/>
<path d="M1511.4 1064.33L1510.89 1065.72L1509.6 1066.46L1508.14 1066.2L1507.18 1065.07V1063.59L1508.14 1062.46L1509.6 1062.2L1510.89 1062.94L1511.4 1064.33Z" fill="#AC39AC"/>
<path d="M1552.69 1063.36L1552.18 1064.75L1550.88 1065.49L1549.42 1065.24L1548.46 1064.1V1062.62L1549.42 1061.49L1550.88 1061.23L1552.18 1061.97L1552.69 1063.36Z" fill="#C77400"/>
<path d="M1505.52 1064.44L1505.01 1065.82L1503.72 1066.56L1502.26 1066.31L1501.3 1065.17V1063.7L1502.26 1062.57L1503.72 1062.31L1505.01 1063.05L1505.52 1064.44Z" fill="#AC39AC"/>
<path d="M1535.26 1063.91L1534.75 1065.3L1533.46 1066.04L1531.99 1065.78L1531.03 1064.65V1063.17L1531.99 1062.03L1533.46 1061.78L1534.75 1062.52L1535.26 1063.91Z" fill="#C77400"/>
<path d="M1545.83 1063.58L1545.31 1064.97L1544.03 1065.71L1542.56 1065.45L1541.6 1064.32V1062.84L1542.56 1061.71L1544.03 1061.45L1545.31 1062.19L1545.83 1063.58Z" fill="#C77400"/>
<path d="M1705.39 1180.25L1704.88 1181.64L1703.59 1182.38L1702.12 1182.12L1701.16 1180.99V1179.51L1702.12 1178.38L1703.59 1178.12L1704.88 1178.86L1705.39 1180.25Z" fill="#C77400"/>
<path d="M1240.99 1481.39L1240.48 1482.78L1239.19 1483.52L1237.72 1483.26L1236.76 1482.13V1480.65L1237.72 1479.52L1239.19 1479.27L1240.48 1480L1240.99 1481.39Z" fill="#AC39AC"/>
<path d="M1221.08 1650.63L1220.57 1652.02L1219.28 1652.75L1217.81 1652.5L1216.86 1651.37V1649.89L1217.81 1648.75L1219.28 1648.5L1220.57 1649.24L1221.08 1650.63Z" fill="#C77400"/>
<path d="M1264.78 1047.56L1264.24 1049.91L1262.73 1051.79L1260.55 1052.83H1258.12L1255.94 1051.79L1254.43 1049.91L1253.89 1047.56L1254.43 1045.22L1255.94 1043.34L1258.12 1042.29H1260.55L1262.73 1043.34L1264.24 1045.22L1264.78 1047.56Z" fill="#AAD3DF"/>
<path d="M1260.98 1047.56L1260.5 1048.71L1259.34 1049.18L1258.18 1048.71L1257.7 1047.56L1258.18 1046.41L1259.34 1045.94L1260.5 1046.41L1260.98 1047.56Z" fill="#576DDF"/>
<path d="M1357.57 489.745L1350.67 492.948L1351.59 494.906L1345.5 494.746L1349.28 490.011L1350.21 491.969L1357.11 488.766L1357.57 489.745Z" fill="#543800"/>
<path d="M1180.6 573.47L1173.78 576.847L1174.75 578.779L1168.66 578.771L1172.32 573.943L1173.29 575.876L1180.11 572.504L1180.6 573.47Z" fill="#543800"/>
<path d="M1005.07 660.217L998.233 663.572L999.203 665.509L993.113 665.488L996.782 660.668L997.752 662.605L1004.58 659.246L1005.07 660.217Z" fill="#543800"/>
<path d="M939.75 676.305L946.635 673.055L945.699 671.105L951.789 671.224L948.04 675.984L947.104 674.03L940.218 677.28L939.75 676.305Z" fill="#543800"/>
<path d="M1115.38 589.848L1122.17 586.412L1121.18 584.488L1127.27 584.441L1123.66 589.303L1122.67 587.375L1115.88 590.814L1115.38 589.848Z" fill="#543800"/>
<path d="M1291.09 503.486L1297.99 500.275L1297.07 498.316L1303.15 498.464L1299.38 503.208L1298.46 501.25L1291.55 504.465L1291.09 503.486Z" fill="#543800"/>
<path d="M1467.08 417.711L1473.91 414.343L1472.94 412.41L1479.03 412.423L1475.36 417.247L1474.39 415.314L1467.56 418.677L1467.08 417.711Z" fill="#543800"/>
<path d="M1560.91 499.711L1565.64 505.648L1567.35 504.309L1568.59 510.225L1563.07 507.657L1564.78 506.319L1560.06 500.382L1560.91 499.711Z" fill="#434343"/>
<path d="M1682.85 652.297L1686.46 658.964L1688.38 657.942L1688.56 663.98L1683.58 660.497L1685.5 659.475L1681.89 652.808L1682.85 652.297Z" fill="#434343"/>
<path d="M1628.02 597.229L1623.3 591.292L1621.59 592.63L1620.35 586.715L1625.86 589.282L1624.16 590.621L1628.88 596.561L1628.02 597.229Z" fill="#434343"/>
<path d="M1504.2 445.653L1502.42 438.297L1500.3 438.804L1501.67 432.918L1505.59 437.537L1503.47 438.044L1505.26 445.399L1504.2 445.653Z" fill="#434343"/>
<path d="M1243.98 567.965H1250.52V573.367H1243.98V567.965Z" fill="#FFFFF7"/>
<path d="M1243.98 569.047H1250.52V570.125H1243.98V569.047Z" fill="#3F3F3F"/>
<path d="M1243.98 571.211H1250.52V572.289H1243.98V571.211Z" fill="#3F3F3F"/>
<path d="M1248.34 567.965L1245.08 573.367H1246.17L1249.43 567.965H1248.34Z" fill="#3F3F3F"/>
</svg>
